<mxfile host="app.diagrams.net" modified="2023-09-13T07:25:28.832Z" agent="Mozilla/5.0 (Windows NT 10.0; Win64; x64) AppleWebKit/537.36 (KHTML, like Gecko) Chrome/116.0.0.0 Safari/537.36" etag="Ij1VVUISzeRVDBOAEp6g" version="21.7.4" type="github" pages="4">
  <diagram name="create" id="5u0lxk5VhcgYXx4nzSjy">
    <mxGraphModel dx="880" dy="446" grid="1" gridSize="10" guides="1" tooltips="1" connect="1" arrows="1" fold="1" page="1" pageScale="1" pageWidth="850" pageHeight="1100" math="0" shadow="0">
      <root>
        <mxCell id="0" />
        <mxCell id="1" parent="0" />
        <mxCell id="xLi15-Slrgv9SJWUx5Ht-1" value="&lt;h1&gt;application_handling_cost&lt;/h1&gt;&lt;div&gt;Create&lt;/div&gt;" style="text;html=1;strokeColor=none;fillColor=none;spacing=5;spacingTop=-20;whiteSpace=wrap;overflow=hidden;rounded=0;" vertex="1" parent="1">
          <mxGeometry x="20" y="20" width="330" height="80" as="geometry" />
        </mxCell>
        <mxCell id="xLi15-Slrgv9SJWUx5Ht-3" value="data :&lt;br style=&quot;border-color: var(--border-color);&quot;&gt;name&lt;br style=&quot;border-color: var(--border-color);&quot;&gt;nominal&lt;br&gt;unit" style="text;html=1;strokeColor=none;fillColor=none;align=center;verticalAlign=middle;whiteSpace=wrap;rounded=0;" vertex="1" parent="1">
          <mxGeometry x="210" y="70" width="120" height="70" as="geometry" />
        </mxCell>
        <mxCell id="xLi15-Slrgv9SJWUx5Ht-4" value="" style="edgeStyle=orthogonalEdgeStyle;rounded=0;orthogonalLoop=1;jettySize=auto;html=1;" edge="1" parent="1">
          <mxGeometry relative="1" as="geometry">
            <mxPoint x="83" y="160" as="sourcePoint" />
            <mxPoint x="83" y="190" as="targetPoint" />
          </mxGeometry>
        </mxCell>
        <mxCell id="xLi15-Slrgv9SJWUx5Ht-5" value="hit endpoint with data" style="ellipse;whiteSpace=wrap;html=1;" vertex="1" parent="1">
          <mxGeometry x="40" y="100" width="110" height="60" as="geometry" />
        </mxCell>
        <mxCell id="xLi15-Slrgv9SJWUx5Ht-6" value="" style="edgeStyle=orthogonalEdgeStyle;rounded=0;orthogonalLoop=1;jettySize=auto;html=1;" edge="1" parent="1">
          <mxGeometry relative="1" as="geometry">
            <mxPoint x="83" y="250" as="sourcePoint" />
            <mxPoint x="83" y="300" as="targetPoint" />
          </mxGeometry>
        </mxCell>
        <mxCell id="xLi15-Slrgv9SJWUx5Ht-7" value="" style="edgeStyle=orthogonalEdgeStyle;rounded=0;orthogonalLoop=1;jettySize=auto;html=1;" edge="1" parent="1" source="xLi15-Slrgv9SJWUx5Ht-8" target="xLi15-Slrgv9SJWUx5Ht-17">
          <mxGeometry relative="1" as="geometry" />
        </mxCell>
        <mxCell id="xLi15-Slrgv9SJWUx5Ht-8" value="&#xa;&lt;span style=&quot;color: rgb(0, 0, 0); font-family: Helvetica; font-size: 12px; font-style: normal; font-variant-ligatures: normal; font-variant-caps: normal; font-weight: 400; letter-spacing: normal; orphans: 2; text-align: center; text-indent: 0px; text-transform: none; widows: 2; word-spacing: 0px; -webkit-text-stroke-width: 0px; background-color: rgb(251, 251, 251); text-decoration-thickness: initial; text-decoration-style: initial; text-decoration-color: initial; float: none; display: inline !important;&quot;&gt;process In controller&lt;/span&gt;&#xa;&#xa;" style="whiteSpace=wrap;html=1;" vertex="1" parent="1">
          <mxGeometry x="35" y="190" width="120" height="60" as="geometry" />
        </mxCell>
        <mxCell id="xLi15-Slrgv9SJWUx5Ht-9" value="" style="edgeStyle=orthogonalEdgeStyle;rounded=0;orthogonalLoop=1;jettySize=auto;html=1;" edge="1" parent="1">
          <mxGeometry relative="1" as="geometry">
            <mxPoint x="81" y="360" as="sourcePoint" />
            <mxPoint x="81" y="400" as="targetPoint" />
          </mxGeometry>
        </mxCell>
        <mxCell id="xLi15-Slrgv9SJWUx5Ht-10" value="" style="edgeStyle=orthogonalEdgeStyle;rounded=0;orthogonalLoop=1;jettySize=auto;html=1;" edge="1" parent="1">
          <mxGeometry relative="1" as="geometry">
            <mxPoint x="99" y="300" as="sourcePoint" />
            <mxPoint x="99" y="250" as="targetPoint" />
          </mxGeometry>
        </mxCell>
        <mxCell id="xLi15-Slrgv9SJWUx5Ht-11" value="process In usecase" style="whiteSpace=wrap;html=1;" vertex="1" parent="1">
          <mxGeometry x="35" y="300" width="120" height="60" as="geometry" />
        </mxCell>
        <mxCell id="xLi15-Slrgv9SJWUx5Ht-12" value="" style="edgeStyle=orthogonalEdgeStyle;rounded=0;orthogonalLoop=1;jettySize=auto;html=1;" edge="1" parent="1">
          <mxGeometry relative="1" as="geometry">
            <mxPoint x="81" y="460" as="sourcePoint" />
            <mxPoint x="81" y="500" as="targetPoint" />
          </mxGeometry>
        </mxCell>
        <mxCell id="xLi15-Slrgv9SJWUx5Ht-13" value="" style="edgeStyle=orthogonalEdgeStyle;rounded=0;orthogonalLoop=1;jettySize=auto;html=1;" edge="1" parent="1">
          <mxGeometry relative="1" as="geometry">
            <mxPoint x="99" y="400" as="sourcePoint" />
            <mxPoint x="99" y="360" as="targetPoint" />
          </mxGeometry>
        </mxCell>
        <mxCell id="xLi15-Slrgv9SJWUx5Ht-14" value="process In repository" style="whiteSpace=wrap;html=1;" vertex="1" parent="1">
          <mxGeometry x="35" y="400" width="120" height="60" as="geometry" />
        </mxCell>
        <mxCell id="xLi15-Slrgv9SJWUx5Ht-15" value="" style="edgeStyle=orthogonalEdgeStyle;rounded=0;orthogonalLoop=1;jettySize=auto;html=1;" edge="1" parent="1">
          <mxGeometry relative="1" as="geometry">
            <mxPoint x="105" y="500" as="sourcePoint" />
            <mxPoint x="105" y="460" as="targetPoint" />
          </mxGeometry>
        </mxCell>
        <mxCell id="xLi15-Slrgv9SJWUx5Ht-16" value="update in database" style="shape=cylinder3;whiteSpace=wrap;html=1;boundedLbl=1;backgroundOutline=1;size=15;" vertex="1" parent="1">
          <mxGeometry x="65" y="500" width="60" height="80" as="geometry" />
        </mxCell>
        <mxCell id="xLi15-Slrgv9SJWUx5Ht-17" value="return api" style="shape=parallelogram;perimeter=parallelogramPerimeter;whiteSpace=wrap;html=1;fixedSize=1;" vertex="1" parent="1">
          <mxGeometry x="200" y="190" width="120" height="60" as="geometry" />
        </mxCell>
        <mxCell id="xLi15-Slrgv9SJWUx5Ht-18" value="&lt;h1 style=&quot;border-color: var(--border-color);&quot;&gt;Controller&lt;/h1&gt;&lt;h1&gt;&lt;div style=&quot;border-color: var(--border-color); font-size: 12px; font-weight: 400;&quot;&gt;Process in controller layer&lt;/div&gt;&lt;/h1&gt;" style="text;html=1;strokeColor=none;fillColor=none;spacing=5;spacingTop=-20;whiteSpace=wrap;overflow=hidden;rounded=0;" vertex="1" parent="1">
          <mxGeometry x="420" y="30" width="190" height="80" as="geometry" />
        </mxCell>
        <mxCell id="xLi15-Slrgv9SJWUx5Ht-19" value="" style="edgeStyle=orthogonalEdgeStyle;rounded=0;orthogonalLoop=1;jettySize=auto;html=1;" edge="1" parent="1" source="xLi15-Slrgv9SJWUx5Ht-20" target="xLi15-Slrgv9SJWUx5Ht-22">
          <mxGeometry relative="1" as="geometry" />
        </mxCell>
        <mxCell id="xLi15-Slrgv9SJWUx5Ht-20" value="start" style="ellipse;whiteSpace=wrap;html=1;" vertex="1" parent="1">
          <mxGeometry x="600" y="55" width="70" height="40" as="geometry" />
        </mxCell>
        <mxCell id="xLi15-Slrgv9SJWUx5Ht-21" value="" style="edgeStyle=orthogonalEdgeStyle;rounded=0;orthogonalLoop=1;jettySize=auto;html=1;" edge="1" parent="1" source="xLi15-Slrgv9SJWUx5Ht-22" target="xLi15-Slrgv9SJWUx5Ht-27">
          <mxGeometry relative="1" as="geometry" />
        </mxCell>
        <mxCell id="xLi15-Slrgv9SJWUx5Ht-22" value="Accepting data in request body" style="whiteSpace=wrap;html=1;" vertex="1" parent="1">
          <mxGeometry x="582.5" y="140" width="105" height="45" as="geometry" />
        </mxCell>
        <mxCell id="xLi15-Slrgv9SJWUx5Ht-23" value="" style="edgeStyle=orthogonalEdgeStyle;rounded=0;orthogonalLoop=1;jettySize=auto;html=1;" edge="1" parent="1" source="xLi15-Slrgv9SJWUx5Ht-27" target="xLi15-Slrgv9SJWUx5Ht-28">
          <mxGeometry relative="1" as="geometry" />
        </mxCell>
        <mxCell id="xLi15-Slrgv9SJWUx5Ht-24" value="no" style="edgeLabel;html=1;align=center;verticalAlign=middle;resizable=0;points=[];" vertex="1" connectable="0" parent="xLi15-Slrgv9SJWUx5Ht-23">
          <mxGeometry x="-0.0571" relative="1" as="geometry">
            <mxPoint y="1" as="offset" />
          </mxGeometry>
        </mxCell>
        <mxCell id="xLi15-Slrgv9SJWUx5Ht-25" value="" style="edgeStyle=orthogonalEdgeStyle;rounded=0;orthogonalLoop=1;jettySize=auto;html=1;" edge="1" parent="1" source="xLi15-Slrgv9SJWUx5Ht-27" target="xLi15-Slrgv9SJWUx5Ht-31">
          <mxGeometry relative="1" as="geometry" />
        </mxCell>
        <mxCell id="xLi15-Slrgv9SJWUx5Ht-26" value="go to usecase" style="edgeLabel;html=1;align=center;verticalAlign=middle;resizable=0;points=[];" vertex="1" connectable="0" parent="xLi15-Slrgv9SJWUx5Ht-25">
          <mxGeometry x="-0.1444" y="4" relative="1" as="geometry">
            <mxPoint as="offset" />
          </mxGeometry>
        </mxCell>
        <mxCell id="xLi15-Slrgv9SJWUx5Ht-27" value="success accept data" style="rhombus;whiteSpace=wrap;html=1;" vertex="1" parent="1">
          <mxGeometry x="595" y="247.5" width="80" height="80" as="geometry" />
        </mxCell>
        <mxCell id="xLi15-Slrgv9SJWUx5Ht-28" value="return error to api" style="shape=parallelogram;perimeter=parallelogramPerimeter;whiteSpace=wrap;html=1;fixedSize=1;" vertex="1" parent="1">
          <mxGeometry x="716" y="257.5" width="120" height="60" as="geometry" />
        </mxCell>
        <mxCell id="xLi15-Slrgv9SJWUx5Ht-29" value="" style="edgeStyle=orthogonalEdgeStyle;rounded=0;orthogonalLoop=1;jettySize=auto;html=1;" edge="1" parent="1" source="xLi15-Slrgv9SJWUx5Ht-31">
          <mxGeometry relative="1" as="geometry">
            <mxPoint x="635" y="557.5" as="targetPoint" />
          </mxGeometry>
        </mxCell>
        <mxCell id="xLi15-Slrgv9SJWUx5Ht-30" value="return result" style="edgeLabel;html=1;align=center;verticalAlign=middle;resizable=0;points=[];" vertex="1" connectable="0" parent="xLi15-Slrgv9SJWUx5Ht-29">
          <mxGeometry x="0.0125" y="1" relative="1" as="geometry">
            <mxPoint as="offset" />
          </mxGeometry>
        </mxCell>
        <mxCell id="xLi15-Slrgv9SJWUx5Ht-31" value="Process in usecase" style="whiteSpace=wrap;html=1;" vertex="1" parent="1">
          <mxGeometry x="575" y="417.5" width="120" height="60" as="geometry" />
        </mxCell>
        <mxCell id="xLi15-Slrgv9SJWUx5Ht-32" value="" style="edgeStyle=orthogonalEdgeStyle;rounded=0;orthogonalLoop=1;jettySize=auto;html=1;" edge="1" parent="1" source="xLi15-Slrgv9SJWUx5Ht-36" target="xLi15-Slrgv9SJWUx5Ht-37">
          <mxGeometry relative="1" as="geometry" />
        </mxCell>
        <mxCell id="xLi15-Slrgv9SJWUx5Ht-33" value="yes" style="edgeLabel;html=1;align=center;verticalAlign=middle;resizable=0;points=[];" vertex="1" connectable="0" parent="xLi15-Slrgv9SJWUx5Ht-32">
          <mxGeometry x="-0.1714" y="1" relative="1" as="geometry">
            <mxPoint as="offset" />
          </mxGeometry>
        </mxCell>
        <mxCell id="xLi15-Slrgv9SJWUx5Ht-34" value="" style="edgeStyle=orthogonalEdgeStyle;rounded=0;orthogonalLoop=1;jettySize=auto;html=1;" edge="1" parent="1" source="xLi15-Slrgv9SJWUx5Ht-36" target="xLi15-Slrgv9SJWUx5Ht-38">
          <mxGeometry relative="1" as="geometry" />
        </mxCell>
        <mxCell id="xLi15-Slrgv9SJWUx5Ht-35" value="no" style="edgeLabel;html=1;align=center;verticalAlign=middle;resizable=0;points=[];" vertex="1" connectable="0" parent="xLi15-Slrgv9SJWUx5Ht-34">
          <mxGeometry x="-0.1714" y="-2" relative="1" as="geometry">
            <mxPoint as="offset" />
          </mxGeometry>
        </mxCell>
        <mxCell id="xLi15-Slrgv9SJWUx5Ht-36" value="get error resutl?" style="rhombus;whiteSpace=wrap;html=1;" vertex="1" parent="1">
          <mxGeometry x="595" y="560" width="80" height="80" as="geometry" />
        </mxCell>
        <mxCell id="xLi15-Slrgv9SJWUx5Ht-37" value="return error to api" style="shape=parallelogram;perimeter=parallelogramPerimeter;whiteSpace=wrap;html=1;fixedSize=1;" vertex="1" parent="1">
          <mxGeometry x="415" y="570" width="120" height="60" as="geometry" />
        </mxCell>
        <mxCell id="xLi15-Slrgv9SJWUx5Ht-38" value="return massage success create data to API" style="shape=parallelogram;perimeter=parallelogramPerimeter;whiteSpace=wrap;html=1;fixedSize=1;" vertex="1" parent="1">
          <mxGeometry x="722" y="570" width="120" height="60" as="geometry" />
        </mxCell>
        <mxCell id="xLi15-Slrgv9SJWUx5Ht-76" value="&lt;h1&gt;Usecase&lt;/h1&gt;&lt;div&gt;process in usecase layer&lt;/div&gt;" style="text;html=1;strokeColor=none;fillColor=none;spacing=5;spacingTop=-20;whiteSpace=wrap;overflow=hidden;rounded=0;" vertex="1" parent="1">
          <mxGeometry x="10" y="620" width="160" height="70" as="geometry" />
        </mxCell>
        <mxCell id="xLi15-Slrgv9SJWUx5Ht-77" value="" style="edgeStyle=orthogonalEdgeStyle;rounded=0;orthogonalLoop=1;jettySize=auto;html=1;" edge="1" parent="1" source="xLi15-Slrgv9SJWUx5Ht-79" target="xLi15-Slrgv9SJWUx5Ht-87">
          <mxGeometry relative="1" as="geometry" />
        </mxCell>
        <mxCell id="xLi15-Slrgv9SJWUx5Ht-78" value="no" style="edgeLabel;html=1;align=center;verticalAlign=middle;resizable=0;points=[];" vertex="1" connectable="0" parent="xLi15-Slrgv9SJWUx5Ht-77">
          <mxGeometry x="-0.08" y="1" relative="1" as="geometry">
            <mxPoint as="offset" />
          </mxGeometry>
        </mxCell>
        <mxCell id="xLi15-Slrgv9SJWUx5Ht-79" value="GetRole() == admin" style="rhombus;whiteSpace=wrap;html=1;" vertex="1" parent="1">
          <mxGeometry x="174" y="840" width="80" height="80" as="geometry" />
        </mxCell>
        <mxCell id="xLi15-Slrgv9SJWUx5Ht-80" value="" style="edgeStyle=orthogonalEdgeStyle;rounded=0;orthogonalLoop=1;jettySize=auto;html=1;exitX=0.5;exitY=1;exitDx=0;exitDy=0;" edge="1" parent="1" source="xLi15-Slrgv9SJWUx5Ht-79" target="xLi15-Slrgv9SJWUx5Ht-86">
          <mxGeometry relative="1" as="geometry">
            <mxPoint x="214" y="1050" as="sourcePoint" />
          </mxGeometry>
        </mxCell>
        <mxCell id="xLi15-Slrgv9SJWUx5Ht-81" value="yes" style="edgeLabel;html=1;align=center;verticalAlign=middle;resizable=0;points=[];" vertex="1" connectable="0" parent="xLi15-Slrgv9SJWUx5Ht-80">
          <mxGeometry x="-0.2381" y="2" relative="1" as="geometry">
            <mxPoint as="offset" />
          </mxGeometry>
        </mxCell>
        <mxCell id="xLi15-Slrgv9SJWUx5Ht-82" value="" style="edgeStyle=orthogonalEdgeStyle;rounded=0;orthogonalLoop=1;jettySize=auto;html=1;" edge="1" parent="1" source="xLi15-Slrgv9SJWUx5Ht-86">
          <mxGeometry relative="1" as="geometry">
            <mxPoint x="314" y="1002" as="targetPoint" />
          </mxGeometry>
        </mxCell>
        <mxCell id="xLi15-Slrgv9SJWUx5Ht-83" value="yes" style="edgeLabel;html=1;align=center;verticalAlign=middle;resizable=0;points=[];" vertex="1" connectable="0" parent="xLi15-Slrgv9SJWUx5Ht-82">
          <mxGeometry x="0.0082" y="-5" relative="1" as="geometry">
            <mxPoint x="-2" as="offset" />
          </mxGeometry>
        </mxCell>
        <mxCell id="xLi15-Slrgv9SJWUx5Ht-84" value="" style="edgeStyle=orthogonalEdgeStyle;rounded=0;orthogonalLoop=1;jettySize=auto;html=1;" edge="1" parent="1" source="xLi15-Slrgv9SJWUx5Ht-86" target="xLi15-Slrgv9SJWUx5Ht-92">
          <mxGeometry relative="1" as="geometry" />
        </mxCell>
        <mxCell id="xLi15-Slrgv9SJWUx5Ht-85" value="no" style="edgeLabel;html=1;align=center;verticalAlign=middle;resizable=0;points=[];" vertex="1" connectable="0" parent="xLi15-Slrgv9SJWUx5Ht-84">
          <mxGeometry x="-0.2414" y="-2" relative="1" as="geometry">
            <mxPoint as="offset" />
          </mxGeometry>
        </mxCell>
        <mxCell id="xLi15-Slrgv9SJWUx5Ht-86" value="name == nul" style="rhombus;whiteSpace=wrap;html=1;" vertex="1" parent="1">
          <mxGeometry x="174" y="962" width="80" height="80" as="geometry" />
        </mxCell>
        <mxCell id="xLi15-Slrgv9SJWUx5Ht-87" value="return : you are not allowed to do this." style="shape=parallelogram;perimeter=parallelogramPerimeter;whiteSpace=wrap;html=1;fixedSize=1;" vertex="1" parent="1">
          <mxGeometry x="294" y="850" width="120" height="60" as="geometry" />
        </mxCell>
        <mxCell id="xLi15-Slrgv9SJWUx5Ht-88" value="name required" style="shape=parallelogram;perimeter=parallelogramPerimeter;whiteSpace=wrap;html=1;fixedSize=1;" vertex="1" parent="1">
          <mxGeometry x="304" y="972" width="120" height="60" as="geometry" />
        </mxCell>
        <mxCell id="xLi15-Slrgv9SJWUx5Ht-89" value="" style="edgeStyle=orthogonalEdgeStyle;rounded=0;orthogonalLoop=1;jettySize=auto;html=1;" edge="1" parent="1" source="xLi15-Slrgv9SJWUx5Ht-92" target="xLi15-Slrgv9SJWUx5Ht-96">
          <mxGeometry relative="1" as="geometry" />
        </mxCell>
        <mxCell id="xLi15-Slrgv9SJWUx5Ht-90" value="yes" style="edgeLabel;html=1;align=center;verticalAlign=middle;resizable=0;points=[];" vertex="1" connectable="0" parent="xLi15-Slrgv9SJWUx5Ht-89">
          <mxGeometry x="-0.2286" relative="1" as="geometry">
            <mxPoint as="offset" />
          </mxGeometry>
        </mxCell>
        <mxCell id="xLi15-Slrgv9SJWUx5Ht-91" value="" style="edgeStyle=orthogonalEdgeStyle;rounded=0;orthogonalLoop=1;jettySize=auto;html=1;" edge="1" parent="1" source="xLi15-Slrgv9SJWUx5Ht-92" target="xLi15-Slrgv9SJWUx5Ht-99">
          <mxGeometry relative="1" as="geometry" />
        </mxCell>
        <mxCell id="xLi15-Slrgv9SJWUx5Ht-152" value="no" style="edgeLabel;html=1;align=center;verticalAlign=middle;resizable=0;points=[];" vertex="1" connectable="0" parent="xLi15-Slrgv9SJWUx5Ht-91">
          <mxGeometry x="-0.32" relative="1" as="geometry">
            <mxPoint as="offset" />
          </mxGeometry>
        </mxCell>
        <mxCell id="xLi15-Slrgv9SJWUx5Ht-92" value="nominal == null" style="rhombus;whiteSpace=wrap;html=1;" vertex="1" parent="1">
          <mxGeometry x="174" y="1100" width="80" height="80" as="geometry" />
        </mxCell>
        <mxCell id="xLi15-Slrgv9SJWUx5Ht-94" value="" style="edgeStyle=orthogonalEdgeStyle;rounded=0;orthogonalLoop=1;jettySize=auto;html=1;" edge="1" parent="1" source="xLi15-Slrgv9SJWUx5Ht-95" target="xLi15-Slrgv9SJWUx5Ht-79">
          <mxGeometry relative="1" as="geometry" />
        </mxCell>
        <mxCell id="xLi15-Slrgv9SJWUx5Ht-95" value="data" style="ellipse;whiteSpace=wrap;html=1;" vertex="1" parent="1">
          <mxGeometry x="154" y="721" width="120" height="80" as="geometry" />
        </mxCell>
        <mxCell id="xLi15-Slrgv9SJWUx5Ht-96" value="nominal required" style="shape=parallelogram;perimeter=parallelogramPerimeter;whiteSpace=wrap;html=1;fixedSize=1;" vertex="1" parent="1">
          <mxGeometry x="314" y="1110" width="120" height="60" as="geometry" />
        </mxCell>
        <mxCell id="xLi15-Slrgv9SJWUx5Ht-97" value="" style="edgeStyle=orthogonalEdgeStyle;rounded=0;orthogonalLoop=1;jettySize=auto;html=1;" edge="1" parent="1" source="xLi15-Slrgv9SJWUx5Ht-99" target="xLi15-Slrgv9SJWUx5Ht-100">
          <mxGeometry relative="1" as="geometry" />
        </mxCell>
        <mxCell id="xLi15-Slrgv9SJWUx5Ht-153" value="yes" style="edgeLabel;html=1;align=center;verticalAlign=middle;resizable=0;points=[];" vertex="1" connectable="0" parent="xLi15-Slrgv9SJWUx5Ht-97">
          <mxGeometry y="-1" relative="1" as="geometry">
            <mxPoint as="offset" />
          </mxGeometry>
        </mxCell>
        <mxCell id="xLi15-Slrgv9SJWUx5Ht-157" value="" style="edgeStyle=orthogonalEdgeStyle;rounded=0;orthogonalLoop=1;jettySize=auto;html=1;" edge="1" parent="1" source="xLi15-Slrgv9SJWUx5Ht-99" target="xLi15-Slrgv9SJWUx5Ht-156">
          <mxGeometry relative="1" as="geometry" />
        </mxCell>
        <mxCell id="xLi15-Slrgv9SJWUx5Ht-158" value="no" style="edgeLabel;html=1;align=center;verticalAlign=middle;resizable=0;points=[];" vertex="1" connectable="0" parent="xLi15-Slrgv9SJWUx5Ht-157">
          <mxGeometry x="-0.225" y="1" relative="1" as="geometry">
            <mxPoint as="offset" />
          </mxGeometry>
        </mxCell>
        <mxCell id="xLi15-Slrgv9SJWUx5Ht-99" value="nominal &amp;lt;= 0" style="rhombus;whiteSpace=wrap;html=1;" vertex="1" parent="1">
          <mxGeometry x="174" y="1230" width="80" height="80" as="geometry" />
        </mxCell>
        <mxCell id="xLi15-Slrgv9SJWUx5Ht-100" value="nominal must greather than 0" style="shape=parallelogram;perimeter=parallelogramPerimeter;whiteSpace=wrap;html=1;fixedSize=1;" vertex="1" parent="1">
          <mxGeometry x="314" y="1240" width="120" height="60" as="geometry" />
        </mxCell>
        <mxCell id="xLi15-Slrgv9SJWUx5Ht-160" value="" style="edgeStyle=orthogonalEdgeStyle;rounded=0;orthogonalLoop=1;jettySize=auto;html=1;" edge="1" parent="1" source="xLi15-Slrgv9SJWUx5Ht-156" target="xLi15-Slrgv9SJWUx5Ht-159">
          <mxGeometry relative="1" as="geometry" />
        </mxCell>
        <mxCell id="xLi15-Slrgv9SJWUx5Ht-161" value="yes" style="edgeLabel;html=1;align=center;verticalAlign=middle;resizable=0;points=[];" vertex="1" connectable="0" parent="xLi15-Slrgv9SJWUx5Ht-160">
          <mxGeometry x="-0.0571" relative="1" as="geometry">
            <mxPoint as="offset" />
          </mxGeometry>
        </mxCell>
        <mxCell id="xLi15-Slrgv9SJWUx5Ht-163" value="" style="edgeStyle=orthogonalEdgeStyle;rounded=0;orthogonalLoop=1;jettySize=auto;html=1;" edge="1" parent="1" source="5GACYYdkiAqkhCaLAUfw-2" target="xLi15-Slrgv9SJWUx5Ht-162">
          <mxGeometry relative="1" as="geometry" />
        </mxCell>
        <mxCell id="xLi15-Slrgv9SJWUx5Ht-156" value="unit == null" style="rhombus;whiteSpace=wrap;html=1;" vertex="1" parent="1">
          <mxGeometry x="174" y="1390" width="80" height="80" as="geometry" />
        </mxCell>
        <mxCell id="xLi15-Slrgv9SJWUx5Ht-159" value="unit required" style="shape=parallelogram;perimeter=parallelogramPerimeter;whiteSpace=wrap;html=1;fixedSize=1;" vertex="1" parent="1">
          <mxGeometry x="314" y="1400" width="120" height="60" as="geometry" />
        </mxCell>
        <mxCell id="xLi15-Slrgv9SJWUx5Ht-165" value="" style="edgeStyle=orthogonalEdgeStyle;rounded=0;orthogonalLoop=1;jettySize=auto;html=1;" edge="1" parent="1" source="xLi15-Slrgv9SJWUx5Ht-162" target="xLi15-Slrgv9SJWUx5Ht-164">
          <mxGeometry relative="1" as="geometry" />
        </mxCell>
        <mxCell id="xLi15-Slrgv9SJWUx5Ht-162" value="proses crete to database in repository" style="rounded=1;whiteSpace=wrap;html=1;" vertex="1" parent="1">
          <mxGeometry x="154" y="1650" width="120" height="60" as="geometry" />
        </mxCell>
        <mxCell id="xLi15-Slrgv9SJWUx5Ht-167" value="" style="edgeStyle=orthogonalEdgeStyle;rounded=0;orthogonalLoop=1;jettySize=auto;html=1;" edge="1" parent="1" source="xLi15-Slrgv9SJWUx5Ht-164" target="xLi15-Slrgv9SJWUx5Ht-166">
          <mxGeometry relative="1" as="geometry" />
        </mxCell>
        <mxCell id="xLi15-Slrgv9SJWUx5Ht-168" value="no" style="edgeLabel;html=1;align=center;verticalAlign=middle;resizable=0;points=[];" vertex="1" connectable="0" parent="xLi15-Slrgv9SJWUx5Ht-167">
          <mxGeometry x="-0.1429" y="1" relative="1" as="geometry">
            <mxPoint as="offset" />
          </mxGeometry>
        </mxCell>
        <mxCell id="xLi15-Slrgv9SJWUx5Ht-170" value="" style="edgeStyle=orthogonalEdgeStyle;rounded=0;orthogonalLoop=1;jettySize=auto;html=1;" edge="1" parent="1" source="xLi15-Slrgv9SJWUx5Ht-164" target="xLi15-Slrgv9SJWUx5Ht-169">
          <mxGeometry relative="1" as="geometry" />
        </mxCell>
        <mxCell id="xLi15-Slrgv9SJWUx5Ht-164" value="success creating data" style="rhombus;whiteSpace=wrap;html=1;rounded=1;" vertex="1" parent="1">
          <mxGeometry x="174" y="1780" width="80" height="80" as="geometry" />
        </mxCell>
        <mxCell id="xLi15-Slrgv9SJWUx5Ht-166" value="return error" style="shape=parallelogram;perimeter=parallelogramPerimeter;whiteSpace=wrap;html=1;fixedSize=1;rounded=1;" vertex="1" parent="1">
          <mxGeometry x="314" y="1790" width="120" height="60" as="geometry" />
        </mxCell>
        <mxCell id="xLi15-Slrgv9SJWUx5Ht-169" value="returm success" style="shape=parallelogram;perimeter=parallelogramPerimeter;whiteSpace=wrap;html=1;fixedSize=1;rounded=1;" vertex="1" parent="1">
          <mxGeometry x="154" y="1950" width="120" height="60" as="geometry" />
        </mxCell>
        <mxCell id="xLi15-Slrgv9SJWUx5Ht-171" value="&lt;h1&gt;repo&lt;/h1&gt;&lt;div&gt;process in layer repository&lt;/div&gt;" style="text;html=1;strokeColor=none;fillColor=none;spacing=5;spacingTop=-20;whiteSpace=wrap;overflow=hidden;rounded=0;" vertex="1" parent="1">
          <mxGeometry x="550" y="665" width="160" height="70" as="geometry" />
        </mxCell>
        <mxCell id="xLi15-Slrgv9SJWUx5Ht-174" value="" style="edgeStyle=orthogonalEdgeStyle;rounded=0;orthogonalLoop=1;jettySize=auto;html=1;" edge="1" parent="1" source="xLi15-Slrgv9SJWUx5Ht-172" target="xLi15-Slrgv9SJWUx5Ht-173">
          <mxGeometry relative="1" as="geometry" />
        </mxCell>
        <mxCell id="xLi15-Slrgv9SJWUx5Ht-172" value="data" style="ellipse;whiteSpace=wrap;html=1;" vertex="1" parent="1">
          <mxGeometry x="697" y="721" width="120" height="80" as="geometry" />
        </mxCell>
        <mxCell id="xLi15-Slrgv9SJWUx5Ht-176" value="" style="edgeStyle=orthogonalEdgeStyle;rounded=0;orthogonalLoop=1;jettySize=auto;html=1;" edge="1" parent="1" source="xLi15-Slrgv9SJWUx5Ht-173" target="xLi15-Slrgv9SJWUx5Ht-175">
          <mxGeometry relative="1" as="geometry" />
        </mxCell>
        <mxCell id="xLi15-Slrgv9SJWUx5Ht-178" value="" style="edgeStyle=orthogonalEdgeStyle;rounded=0;orthogonalLoop=1;jettySize=auto;html=1;" edge="1" parent="1" source="xLi15-Slrgv9SJWUx5Ht-173" target="xLi15-Slrgv9SJWUx5Ht-177">
          <mxGeometry relative="1" as="geometry" />
        </mxCell>
        <mxCell id="xLi15-Slrgv9SJWUx5Ht-173" value="do query create to table appication_handle_cost" style="whiteSpace=wrap;html=1;" vertex="1" parent="1">
          <mxGeometry x="692" y="891" width="130" height="69" as="geometry" />
        </mxCell>
        <mxCell id="xLi15-Slrgv9SJWUx5Ht-175" value="table application handle cost" style="shape=cylinder3;whiteSpace=wrap;html=1;boundedLbl=1;backgroundOutline=1;size=15;" vertex="1" parent="1">
          <mxGeometry x="560" y="885.5" width="60" height="80" as="geometry" />
        </mxCell>
        <mxCell id="xLi15-Slrgv9SJWUx5Ht-180" value="" style="edgeStyle=orthogonalEdgeStyle;rounded=0;orthogonalLoop=1;jettySize=auto;html=1;" edge="1" parent="1" source="xLi15-Slrgv9SJWUx5Ht-177" target="xLi15-Slrgv9SJWUx5Ht-179">
          <mxGeometry relative="1" as="geometry" />
        </mxCell>
        <mxCell id="xLi15-Slrgv9SJWUx5Ht-183" value="no" style="edgeLabel;html=1;align=center;verticalAlign=middle;resizable=0;points=[];" vertex="1" connectable="0" parent="xLi15-Slrgv9SJWUx5Ht-180">
          <mxGeometry x="0.0566" y="1" relative="1" as="geometry">
            <mxPoint as="offset" />
          </mxGeometry>
        </mxCell>
        <mxCell id="xLi15-Slrgv9SJWUx5Ht-182" value="" style="edgeStyle=orthogonalEdgeStyle;rounded=0;orthogonalLoop=1;jettySize=auto;html=1;" edge="1" parent="1" source="xLi15-Slrgv9SJWUx5Ht-177" target="xLi15-Slrgv9SJWUx5Ht-181">
          <mxGeometry relative="1" as="geometry" />
        </mxCell>
        <mxCell id="xLi15-Slrgv9SJWUx5Ht-184" value="yes" style="edgeLabel;html=1;align=center;verticalAlign=middle;resizable=0;points=[];" vertex="1" connectable="0" parent="xLi15-Slrgv9SJWUx5Ht-182">
          <mxGeometry x="-0.1556" y="-2" relative="1" as="geometry">
            <mxPoint as="offset" />
          </mxGeometry>
        </mxCell>
        <mxCell id="xLi15-Slrgv9SJWUx5Ht-177" value="success creste data" style="rhombus;whiteSpace=wrap;html=1;" vertex="1" parent="1">
          <mxGeometry x="717" y="1010" width="80" height="80" as="geometry" />
        </mxCell>
        <mxCell id="xLi15-Slrgv9SJWUx5Ht-179" value="return error" style="shape=parallelogram;perimeter=parallelogramPerimeter;whiteSpace=wrap;html=1;fixedSize=1;" vertex="1" parent="1">
          <mxGeometry x="560" y="1020" width="120" height="60" as="geometry" />
        </mxCell>
        <mxCell id="xLi15-Slrgv9SJWUx5Ht-181" value="retun success" style="shape=parallelogram;perimeter=parallelogramPerimeter;whiteSpace=wrap;html=1;fixedSize=1;" vertex="1" parent="1">
          <mxGeometry x="697" y="1180" width="120" height="60" as="geometry" />
        </mxCell>
        <mxCell id="5GACYYdkiAqkhCaLAUfw-1" value="" style="edgeStyle=orthogonalEdgeStyle;rounded=0;orthogonalLoop=1;jettySize=auto;html=1;" edge="1" parent="1" source="xLi15-Slrgv9SJWUx5Ht-156" target="5GACYYdkiAqkhCaLAUfw-2">
          <mxGeometry relative="1" as="geometry">
            <mxPoint x="214" y="1470" as="sourcePoint" />
            <mxPoint x="214" y="1650" as="targetPoint" />
          </mxGeometry>
        </mxCell>
        <mxCell id="5GACYYdkiAqkhCaLAUfw-3" value="no" style="edgeLabel;html=1;align=center;verticalAlign=middle;resizable=0;points=[];" vertex="1" connectable="0" parent="5GACYYdkiAqkhCaLAUfw-1">
          <mxGeometry x="-0.28" y="-1" relative="1" as="geometry">
            <mxPoint as="offset" />
          </mxGeometry>
        </mxCell>
        <mxCell id="5GACYYdkiAqkhCaLAUfw-2" value="generateUuid()" style="rounded=0;whiteSpace=wrap;html=1;" vertex="1" parent="1">
          <mxGeometry x="154" y="1530" width="120" height="60" as="geometry" />
        </mxCell>
      </root>
    </mxGraphModel>
  </diagram>
  <diagram name="search by id" id="7U2D3QBQMISTLIY6psH9">
    <mxGraphModel dx="880" dy="446" grid="1" gridSize="10" guides="1" tooltips="1" connect="1" arrows="1" fold="1" page="1" pageScale="1" pageWidth="850" pageHeight="1100" math="0" shadow="0">
      <root>
        <mxCell id="hkqt5J7uNssLq77rhA-l-0" />
        <mxCell id="hkqt5J7uNssLq77rhA-l-1" parent="hkqt5J7uNssLq77rhA-l-0" />
        <mxCell id="hkqt5J7uNssLq77rhA-l-2" value="&lt;h1&gt;application_handling_cost&lt;/h1&gt;&lt;div&gt;search by id&lt;/div&gt;" style="text;html=1;strokeColor=none;fillColor=none;spacing=5;spacingTop=-20;whiteSpace=wrap;overflow=hidden;rounded=0;" vertex="1" parent="hkqt5J7uNssLq77rhA-l-1">
          <mxGeometry x="20" y="20" width="330" height="80" as="geometry" />
        </mxCell>
        <mxCell id="hkqt5J7uNssLq77rhA-l-3" value="data :&lt;br style=&quot;border-color: var(--border-color);&quot;&gt;id" style="text;html=1;strokeColor=none;fillColor=none;align=center;verticalAlign=middle;whiteSpace=wrap;rounded=0;" vertex="1" parent="hkqt5J7uNssLq77rhA-l-1">
          <mxGeometry x="210" y="70" width="120" height="70" as="geometry" />
        </mxCell>
        <mxCell id="hkqt5J7uNssLq77rhA-l-4" value="" style="edgeStyle=orthogonalEdgeStyle;rounded=0;orthogonalLoop=1;jettySize=auto;html=1;" edge="1" parent="hkqt5J7uNssLq77rhA-l-1">
          <mxGeometry relative="1" as="geometry">
            <mxPoint x="83" y="160" as="sourcePoint" />
            <mxPoint x="83" y="190" as="targetPoint" />
          </mxGeometry>
        </mxCell>
        <mxCell id="hkqt5J7uNssLq77rhA-l-5" value="hit endpoint with data" style="ellipse;whiteSpace=wrap;html=1;" vertex="1" parent="hkqt5J7uNssLq77rhA-l-1">
          <mxGeometry x="40" y="100" width="110" height="60" as="geometry" />
        </mxCell>
        <mxCell id="hkqt5J7uNssLq77rhA-l-6" value="" style="edgeStyle=orthogonalEdgeStyle;rounded=0;orthogonalLoop=1;jettySize=auto;html=1;" edge="1" parent="hkqt5J7uNssLq77rhA-l-1">
          <mxGeometry relative="1" as="geometry">
            <mxPoint x="83" y="250" as="sourcePoint" />
            <mxPoint x="83" y="300" as="targetPoint" />
          </mxGeometry>
        </mxCell>
        <mxCell id="hkqt5J7uNssLq77rhA-l-7" value="" style="edgeStyle=orthogonalEdgeStyle;rounded=0;orthogonalLoop=1;jettySize=auto;html=1;" edge="1" parent="hkqt5J7uNssLq77rhA-l-1" source="hkqt5J7uNssLq77rhA-l-8" target="hkqt5J7uNssLq77rhA-l-17">
          <mxGeometry relative="1" as="geometry" />
        </mxCell>
        <mxCell id="hkqt5J7uNssLq77rhA-l-8" value="&#xa;&lt;span style=&quot;color: rgb(0, 0, 0); font-family: Helvetica; font-size: 12px; font-style: normal; font-variant-ligatures: normal; font-variant-caps: normal; font-weight: 400; letter-spacing: normal; orphans: 2; text-align: center; text-indent: 0px; text-transform: none; widows: 2; word-spacing: 0px; -webkit-text-stroke-width: 0px; background-color: rgb(251, 251, 251); text-decoration-thickness: initial; text-decoration-style: initial; text-decoration-color: initial; float: none; display: inline !important;&quot;&gt;process In controller&lt;/span&gt;&#xa;&#xa;" style="whiteSpace=wrap;html=1;" vertex="1" parent="hkqt5J7uNssLq77rhA-l-1">
          <mxGeometry x="35" y="190" width="120" height="60" as="geometry" />
        </mxCell>
        <mxCell id="hkqt5J7uNssLq77rhA-l-9" value="" style="edgeStyle=orthogonalEdgeStyle;rounded=0;orthogonalLoop=1;jettySize=auto;html=1;" edge="1" parent="hkqt5J7uNssLq77rhA-l-1">
          <mxGeometry relative="1" as="geometry">
            <mxPoint x="81" y="360" as="sourcePoint" />
            <mxPoint x="81" y="400" as="targetPoint" />
          </mxGeometry>
        </mxCell>
        <mxCell id="hkqt5J7uNssLq77rhA-l-10" value="" style="edgeStyle=orthogonalEdgeStyle;rounded=0;orthogonalLoop=1;jettySize=auto;html=1;" edge="1" parent="hkqt5J7uNssLq77rhA-l-1">
          <mxGeometry relative="1" as="geometry">
            <mxPoint x="99" y="300" as="sourcePoint" />
            <mxPoint x="99" y="250" as="targetPoint" />
          </mxGeometry>
        </mxCell>
        <mxCell id="hkqt5J7uNssLq77rhA-l-11" value="process In usecase" style="whiteSpace=wrap;html=1;" vertex="1" parent="hkqt5J7uNssLq77rhA-l-1">
          <mxGeometry x="35" y="300" width="120" height="60" as="geometry" />
        </mxCell>
        <mxCell id="hkqt5J7uNssLq77rhA-l-12" value="" style="edgeStyle=orthogonalEdgeStyle;rounded=0;orthogonalLoop=1;jettySize=auto;html=1;" edge="1" parent="hkqt5J7uNssLq77rhA-l-1">
          <mxGeometry relative="1" as="geometry">
            <mxPoint x="81" y="460" as="sourcePoint" />
            <mxPoint x="81" y="500" as="targetPoint" />
          </mxGeometry>
        </mxCell>
        <mxCell id="hkqt5J7uNssLq77rhA-l-13" value="" style="edgeStyle=orthogonalEdgeStyle;rounded=0;orthogonalLoop=1;jettySize=auto;html=1;" edge="1" parent="hkqt5J7uNssLq77rhA-l-1">
          <mxGeometry relative="1" as="geometry">
            <mxPoint x="99" y="400" as="sourcePoint" />
            <mxPoint x="99" y="360" as="targetPoint" />
          </mxGeometry>
        </mxCell>
        <mxCell id="hkqt5J7uNssLq77rhA-l-14" value="process In repository" style="whiteSpace=wrap;html=1;" vertex="1" parent="hkqt5J7uNssLq77rhA-l-1">
          <mxGeometry x="35" y="400" width="120" height="60" as="geometry" />
        </mxCell>
        <mxCell id="hkqt5J7uNssLq77rhA-l-15" value="" style="edgeStyle=orthogonalEdgeStyle;rounded=0;orthogonalLoop=1;jettySize=auto;html=1;" edge="1" parent="hkqt5J7uNssLq77rhA-l-1">
          <mxGeometry relative="1" as="geometry">
            <mxPoint x="105" y="500" as="sourcePoint" />
            <mxPoint x="105" y="460" as="targetPoint" />
          </mxGeometry>
        </mxCell>
        <mxCell id="hkqt5J7uNssLq77rhA-l-16" value="update in database" style="shape=cylinder3;whiteSpace=wrap;html=1;boundedLbl=1;backgroundOutline=1;size=15;" vertex="1" parent="hkqt5J7uNssLq77rhA-l-1">
          <mxGeometry x="65" y="500" width="60" height="80" as="geometry" />
        </mxCell>
        <mxCell id="hkqt5J7uNssLq77rhA-l-17" value="return api" style="shape=parallelogram;perimeter=parallelogramPerimeter;whiteSpace=wrap;html=1;fixedSize=1;" vertex="1" parent="hkqt5J7uNssLq77rhA-l-1">
          <mxGeometry x="200" y="190" width="120" height="60" as="geometry" />
        </mxCell>
        <mxCell id="hkqt5J7uNssLq77rhA-l-18" value="&lt;h1 style=&quot;border-color: var(--border-color);&quot;&gt;Controller&lt;/h1&gt;&lt;h1&gt;&lt;div style=&quot;border-color: var(--border-color); font-size: 12px; font-weight: 400;&quot;&gt;Process in controller layer&lt;/div&gt;&lt;/h1&gt;" style="text;html=1;strokeColor=none;fillColor=none;spacing=5;spacingTop=-20;whiteSpace=wrap;overflow=hidden;rounded=0;" vertex="1" parent="hkqt5J7uNssLq77rhA-l-1">
          <mxGeometry x="420" y="30" width="190" height="80" as="geometry" />
        </mxCell>
        <mxCell id="hkqt5J7uNssLq77rhA-l-19" value="" style="edgeStyle=orthogonalEdgeStyle;rounded=0;orthogonalLoop=1;jettySize=auto;html=1;" edge="1" parent="hkqt5J7uNssLq77rhA-l-1" source="hkqt5J7uNssLq77rhA-l-20" target="hkqt5J7uNssLq77rhA-l-22">
          <mxGeometry relative="1" as="geometry" />
        </mxCell>
        <mxCell id="hkqt5J7uNssLq77rhA-l-20" value="start" style="ellipse;whiteSpace=wrap;html=1;" vertex="1" parent="hkqt5J7uNssLq77rhA-l-1">
          <mxGeometry x="600" y="55" width="70" height="40" as="geometry" />
        </mxCell>
        <mxCell id="hkqt5J7uNssLq77rhA-l-21" value="" style="edgeStyle=orthogonalEdgeStyle;rounded=0;orthogonalLoop=1;jettySize=auto;html=1;" edge="1" parent="hkqt5J7uNssLq77rhA-l-1" source="hkqt5J7uNssLq77rhA-l-22" target="hkqt5J7uNssLq77rhA-l-27">
          <mxGeometry relative="1" as="geometry" />
        </mxCell>
        <mxCell id="hkqt5J7uNssLq77rhA-l-22" value="Accepting data in request body" style="whiteSpace=wrap;html=1;" vertex="1" parent="hkqt5J7uNssLq77rhA-l-1">
          <mxGeometry x="582.5" y="140" width="105" height="45" as="geometry" />
        </mxCell>
        <mxCell id="hkqt5J7uNssLq77rhA-l-23" value="" style="edgeStyle=orthogonalEdgeStyle;rounded=0;orthogonalLoop=1;jettySize=auto;html=1;" edge="1" parent="hkqt5J7uNssLq77rhA-l-1" source="hkqt5J7uNssLq77rhA-l-27" target="hkqt5J7uNssLq77rhA-l-28">
          <mxGeometry relative="1" as="geometry" />
        </mxCell>
        <mxCell id="hkqt5J7uNssLq77rhA-l-24" value="no" style="edgeLabel;html=1;align=center;verticalAlign=middle;resizable=0;points=[];" vertex="1" connectable="0" parent="hkqt5J7uNssLq77rhA-l-23">
          <mxGeometry x="-0.0571" relative="1" as="geometry">
            <mxPoint y="1" as="offset" />
          </mxGeometry>
        </mxCell>
        <mxCell id="hkqt5J7uNssLq77rhA-l-25" value="" style="edgeStyle=orthogonalEdgeStyle;rounded=0;orthogonalLoop=1;jettySize=auto;html=1;" edge="1" parent="hkqt5J7uNssLq77rhA-l-1" source="hkqt5J7uNssLq77rhA-l-27" target="hkqt5J7uNssLq77rhA-l-31">
          <mxGeometry relative="1" as="geometry" />
        </mxCell>
        <mxCell id="hkqt5J7uNssLq77rhA-l-26" value="go to usecase" style="edgeLabel;html=1;align=center;verticalAlign=middle;resizable=0;points=[];" vertex="1" connectable="0" parent="hkqt5J7uNssLq77rhA-l-25">
          <mxGeometry x="-0.1444" y="4" relative="1" as="geometry">
            <mxPoint as="offset" />
          </mxGeometry>
        </mxCell>
        <mxCell id="hkqt5J7uNssLq77rhA-l-27" value="success accept data" style="rhombus;whiteSpace=wrap;html=1;" vertex="1" parent="hkqt5J7uNssLq77rhA-l-1">
          <mxGeometry x="595" y="247.5" width="80" height="80" as="geometry" />
        </mxCell>
        <mxCell id="hkqt5J7uNssLq77rhA-l-28" value="return error to api" style="shape=parallelogram;perimeter=parallelogramPerimeter;whiteSpace=wrap;html=1;fixedSize=1;" vertex="1" parent="hkqt5J7uNssLq77rhA-l-1">
          <mxGeometry x="716" y="257.5" width="120" height="60" as="geometry" />
        </mxCell>
        <mxCell id="hkqt5J7uNssLq77rhA-l-29" value="" style="edgeStyle=orthogonalEdgeStyle;rounded=0;orthogonalLoop=1;jettySize=auto;html=1;" edge="1" parent="hkqt5J7uNssLq77rhA-l-1" source="hkqt5J7uNssLq77rhA-l-31">
          <mxGeometry relative="1" as="geometry">
            <mxPoint x="635" y="557.5" as="targetPoint" />
          </mxGeometry>
        </mxCell>
        <mxCell id="hkqt5J7uNssLq77rhA-l-30" value="return result" style="edgeLabel;html=1;align=center;verticalAlign=middle;resizable=0;points=[];" vertex="1" connectable="0" parent="hkqt5J7uNssLq77rhA-l-29">
          <mxGeometry x="0.0125" y="1" relative="1" as="geometry">
            <mxPoint as="offset" />
          </mxGeometry>
        </mxCell>
        <mxCell id="hkqt5J7uNssLq77rhA-l-31" value="Process in usecase" style="whiteSpace=wrap;html=1;" vertex="1" parent="hkqt5J7uNssLq77rhA-l-1">
          <mxGeometry x="575" y="417.5" width="120" height="60" as="geometry" />
        </mxCell>
        <mxCell id="hkqt5J7uNssLq77rhA-l-32" value="" style="edgeStyle=orthogonalEdgeStyle;rounded=0;orthogonalLoop=1;jettySize=auto;html=1;" edge="1" parent="hkqt5J7uNssLq77rhA-l-1" source="hkqt5J7uNssLq77rhA-l-36" target="hkqt5J7uNssLq77rhA-l-37">
          <mxGeometry relative="1" as="geometry" />
        </mxCell>
        <mxCell id="hkqt5J7uNssLq77rhA-l-33" value="yes" style="edgeLabel;html=1;align=center;verticalAlign=middle;resizable=0;points=[];" vertex="1" connectable="0" parent="hkqt5J7uNssLq77rhA-l-32">
          <mxGeometry x="-0.1714" y="1" relative="1" as="geometry">
            <mxPoint as="offset" />
          </mxGeometry>
        </mxCell>
        <mxCell id="hkqt5J7uNssLq77rhA-l-34" value="" style="edgeStyle=orthogonalEdgeStyle;rounded=0;orthogonalLoop=1;jettySize=auto;html=1;" edge="1" parent="hkqt5J7uNssLq77rhA-l-1" source="hkqt5J7uNssLq77rhA-l-36" target="hkqt5J7uNssLq77rhA-l-38">
          <mxGeometry relative="1" as="geometry" />
        </mxCell>
        <mxCell id="hkqt5J7uNssLq77rhA-l-35" value="no" style="edgeLabel;html=1;align=center;verticalAlign=middle;resizable=0;points=[];" vertex="1" connectable="0" parent="hkqt5J7uNssLq77rhA-l-34">
          <mxGeometry x="-0.1714" y="-2" relative="1" as="geometry">
            <mxPoint as="offset" />
          </mxGeometry>
        </mxCell>
        <mxCell id="hkqt5J7uNssLq77rhA-l-36" value="get error resutl?" style="rhombus;whiteSpace=wrap;html=1;" vertex="1" parent="hkqt5J7uNssLq77rhA-l-1">
          <mxGeometry x="595" y="560" width="80" height="80" as="geometry" />
        </mxCell>
        <mxCell id="hkqt5J7uNssLq77rhA-l-37" value="return error to api" style="shape=parallelogram;perimeter=parallelogramPerimeter;whiteSpace=wrap;html=1;fixedSize=1;" vertex="1" parent="hkqt5J7uNssLq77rhA-l-1">
          <mxGeometry x="415" y="570" width="120" height="60" as="geometry" />
        </mxCell>
        <mxCell id="hkqt5J7uNssLq77rhA-l-38" value="return data to API" style="shape=parallelogram;perimeter=parallelogramPerimeter;whiteSpace=wrap;html=1;fixedSize=1;" vertex="1" parent="hkqt5J7uNssLq77rhA-l-1">
          <mxGeometry x="722" y="570" width="120" height="60" as="geometry" />
        </mxCell>
        <mxCell id="hkqt5J7uNssLq77rhA-l-39" value="&lt;h1&gt;Usecase&lt;/h1&gt;&lt;div&gt;process in usecase layer&lt;/div&gt;" style="text;html=1;strokeColor=none;fillColor=none;spacing=5;spacingTop=-20;whiteSpace=wrap;overflow=hidden;rounded=0;" vertex="1" parent="hkqt5J7uNssLq77rhA-l-1">
          <mxGeometry x="10" y="620" width="160" height="70" as="geometry" />
        </mxCell>
        <mxCell id="hkqt5J7uNssLq77rhA-l-45" value="" style="edgeStyle=orthogonalEdgeStyle;rounded=0;orthogonalLoop=1;jettySize=auto;html=1;" edge="1" parent="hkqt5J7uNssLq77rhA-l-1" source="hkqt5J7uNssLq77rhA-l-49">
          <mxGeometry relative="1" as="geometry">
            <mxPoint x="314" y="880" as="targetPoint" />
          </mxGeometry>
        </mxCell>
        <mxCell id="hkqt5J7uNssLq77rhA-l-46" value="yes" style="edgeLabel;html=1;align=center;verticalAlign=middle;resizable=0;points=[];" vertex="1" connectable="0" parent="hkqt5J7uNssLq77rhA-l-45">
          <mxGeometry x="0.0082" y="-5" relative="1" as="geometry">
            <mxPoint x="-2" as="offset" />
          </mxGeometry>
        </mxCell>
        <mxCell id="hkqt5J7uNssLq77rhA-l-47" value="" style="edgeStyle=orthogonalEdgeStyle;rounded=0;orthogonalLoop=1;jettySize=auto;html=1;entryX=0.5;entryY=0;entryDx=0;entryDy=0;" edge="1" parent="hkqt5J7uNssLq77rhA-l-1" source="hkqt5J7uNssLq77rhA-l-49" target="hkqt5J7uNssLq77rhA-l-72">
          <mxGeometry relative="1" as="geometry">
            <mxPoint x="214" y="978" as="targetPoint" />
          </mxGeometry>
        </mxCell>
        <mxCell id="hkqt5J7uNssLq77rhA-l-48" value="no" style="edgeLabel;html=1;align=center;verticalAlign=middle;resizable=0;points=[];" vertex="1" connectable="0" parent="hkqt5J7uNssLq77rhA-l-47">
          <mxGeometry x="-0.2414" y="-2" relative="1" as="geometry">
            <mxPoint as="offset" />
          </mxGeometry>
        </mxCell>
        <mxCell id="hkqt5J7uNssLq77rhA-l-49" value="id == nul" style="rhombus;whiteSpace=wrap;html=1;" vertex="1" parent="hkqt5J7uNssLq77rhA-l-1">
          <mxGeometry x="174" y="840" width="80" height="80" as="geometry" />
        </mxCell>
        <mxCell id="hkqt5J7uNssLq77rhA-l-51" value="id required" style="shape=parallelogram;perimeter=parallelogramPerimeter;whiteSpace=wrap;html=1;fixedSize=1;" vertex="1" parent="hkqt5J7uNssLq77rhA-l-1">
          <mxGeometry x="304" y="850" width="120" height="60" as="geometry" />
        </mxCell>
        <mxCell id="gYgdkb4GOBdWQzBsnkHX-0" value="" style="edgeStyle=orthogonalEdgeStyle;rounded=0;orthogonalLoop=1;jettySize=auto;html=1;" edge="1" parent="hkqt5J7uNssLq77rhA-l-1" source="hkqt5J7uNssLq77rhA-l-58" target="hkqt5J7uNssLq77rhA-l-49">
          <mxGeometry relative="1" as="geometry" />
        </mxCell>
        <mxCell id="hkqt5J7uNssLq77rhA-l-58" value="data" style="ellipse;whiteSpace=wrap;html=1;" vertex="1" parent="hkqt5J7uNssLq77rhA-l-1">
          <mxGeometry x="154" y="721" width="120" height="80" as="geometry" />
        </mxCell>
        <mxCell id="hkqt5J7uNssLq77rhA-l-71" value="" style="edgeStyle=orthogonalEdgeStyle;rounded=0;orthogonalLoop=1;jettySize=auto;html=1;" edge="1" parent="hkqt5J7uNssLq77rhA-l-1" source="hkqt5J7uNssLq77rhA-l-72" target="hkqt5J7uNssLq77rhA-l-76">
          <mxGeometry relative="1" as="geometry" />
        </mxCell>
        <mxCell id="hkqt5J7uNssLq77rhA-l-72" value="process search in database with repository" style="rounded=1;whiteSpace=wrap;html=1;" vertex="1" parent="hkqt5J7uNssLq77rhA-l-1">
          <mxGeometry x="154" y="988" width="120" height="60" as="geometry" />
        </mxCell>
        <mxCell id="hkqt5J7uNssLq77rhA-l-73" value="" style="edgeStyle=orthogonalEdgeStyle;rounded=0;orthogonalLoop=1;jettySize=auto;html=1;" edge="1" parent="hkqt5J7uNssLq77rhA-l-1" source="hkqt5J7uNssLq77rhA-l-76" target="hkqt5J7uNssLq77rhA-l-77">
          <mxGeometry relative="1" as="geometry" />
        </mxCell>
        <mxCell id="hkqt5J7uNssLq77rhA-l-74" value="no" style="edgeLabel;html=1;align=center;verticalAlign=middle;resizable=0;points=[];" vertex="1" connectable="0" parent="hkqt5J7uNssLq77rhA-l-73">
          <mxGeometry x="-0.1429" y="1" relative="1" as="geometry">
            <mxPoint as="offset" />
          </mxGeometry>
        </mxCell>
        <mxCell id="hkqt5J7uNssLq77rhA-l-75" value="" style="edgeStyle=orthogonalEdgeStyle;rounded=0;orthogonalLoop=1;jettySize=auto;html=1;" edge="1" parent="hkqt5J7uNssLq77rhA-l-1" source="hkqt5J7uNssLq77rhA-l-76" target="hkqt5J7uNssLq77rhA-l-78">
          <mxGeometry relative="1" as="geometry" />
        </mxCell>
        <mxCell id="ddSFQ74cu47r_tAYlwrl-0" value="yes" style="edgeLabel;html=1;align=center;verticalAlign=middle;resizable=0;points=[];" vertex="1" connectable="0" parent="hkqt5J7uNssLq77rhA-l-75">
          <mxGeometry x="-0.2444" y="2" relative="1" as="geometry">
            <mxPoint as="offset" />
          </mxGeometry>
        </mxCell>
        <mxCell id="hkqt5J7uNssLq77rhA-l-76" value="success searching data" style="rhombus;whiteSpace=wrap;html=1;rounded=1;" vertex="1" parent="hkqt5J7uNssLq77rhA-l-1">
          <mxGeometry x="174" y="1088" width="80" height="80" as="geometry" />
        </mxCell>
        <mxCell id="hkqt5J7uNssLq77rhA-l-77" value="return error" style="shape=parallelogram;perimeter=parallelogramPerimeter;whiteSpace=wrap;html=1;fixedSize=1;rounded=1;" vertex="1" parent="hkqt5J7uNssLq77rhA-l-1">
          <mxGeometry x="314" y="1098" width="120" height="60" as="geometry" />
        </mxCell>
        <mxCell id="hkqt5J7uNssLq77rhA-l-78" value="returm data" style="shape=parallelogram;perimeter=parallelogramPerimeter;whiteSpace=wrap;html=1;fixedSize=1;rounded=1;" vertex="1" parent="hkqt5J7uNssLq77rhA-l-1">
          <mxGeometry x="154" y="1258" width="120" height="60" as="geometry" />
        </mxCell>
        <mxCell id="hkqt5J7uNssLq77rhA-l-79" value="&lt;h1&gt;repo&lt;/h1&gt;&lt;div&gt;process in layer repository&lt;/div&gt;" style="text;html=1;strokeColor=none;fillColor=none;spacing=5;spacingTop=-20;whiteSpace=wrap;overflow=hidden;rounded=0;" vertex="1" parent="hkqt5J7uNssLq77rhA-l-1">
          <mxGeometry x="550" y="665" width="160" height="70" as="geometry" />
        </mxCell>
        <mxCell id="hkqt5J7uNssLq77rhA-l-80" value="" style="edgeStyle=orthogonalEdgeStyle;rounded=0;orthogonalLoop=1;jettySize=auto;html=1;" edge="1" parent="hkqt5J7uNssLq77rhA-l-1" source="hkqt5J7uNssLq77rhA-l-81" target="hkqt5J7uNssLq77rhA-l-84">
          <mxGeometry relative="1" as="geometry" />
        </mxCell>
        <mxCell id="hkqt5J7uNssLq77rhA-l-81" value="data" style="ellipse;whiteSpace=wrap;html=1;" vertex="1" parent="hkqt5J7uNssLq77rhA-l-1">
          <mxGeometry x="697" y="721" width="120" height="80" as="geometry" />
        </mxCell>
        <mxCell id="hkqt5J7uNssLq77rhA-l-82" value="" style="edgeStyle=orthogonalEdgeStyle;rounded=0;orthogonalLoop=1;jettySize=auto;html=1;" edge="1" parent="hkqt5J7uNssLq77rhA-l-1" source="hkqt5J7uNssLq77rhA-l-84" target="hkqt5J7uNssLq77rhA-l-85">
          <mxGeometry relative="1" as="geometry" />
        </mxCell>
        <mxCell id="hkqt5J7uNssLq77rhA-l-83" value="" style="edgeStyle=orthogonalEdgeStyle;rounded=0;orthogonalLoop=1;jettySize=auto;html=1;" edge="1" parent="hkqt5J7uNssLq77rhA-l-1" source="hkqt5J7uNssLq77rhA-l-84" target="hkqt5J7uNssLq77rhA-l-90">
          <mxGeometry relative="1" as="geometry" />
        </mxCell>
        <mxCell id="hkqt5J7uNssLq77rhA-l-84" value="do query select from table application_handle_cost by id" style="whiteSpace=wrap;html=1;" vertex="1" parent="hkqt5J7uNssLq77rhA-l-1">
          <mxGeometry x="692" y="891" width="130" height="69" as="geometry" />
        </mxCell>
        <mxCell id="hkqt5J7uNssLq77rhA-l-85" value="table application handle cost" style="shape=cylinder3;whiteSpace=wrap;html=1;boundedLbl=1;backgroundOutline=1;size=15;" vertex="1" parent="hkqt5J7uNssLq77rhA-l-1">
          <mxGeometry x="560" y="885.5" width="60" height="80" as="geometry" />
        </mxCell>
        <mxCell id="hkqt5J7uNssLq77rhA-l-86" value="" style="edgeStyle=orthogonalEdgeStyle;rounded=0;orthogonalLoop=1;jettySize=auto;html=1;" edge="1" parent="hkqt5J7uNssLq77rhA-l-1" source="hkqt5J7uNssLq77rhA-l-90" target="hkqt5J7uNssLq77rhA-l-91">
          <mxGeometry relative="1" as="geometry" />
        </mxCell>
        <mxCell id="hkqt5J7uNssLq77rhA-l-87" value="no" style="edgeLabel;html=1;align=center;verticalAlign=middle;resizable=0;points=[];" vertex="1" connectable="0" parent="hkqt5J7uNssLq77rhA-l-86">
          <mxGeometry x="0.0566" y="1" relative="1" as="geometry">
            <mxPoint as="offset" />
          </mxGeometry>
        </mxCell>
        <mxCell id="hkqt5J7uNssLq77rhA-l-88" value="" style="edgeStyle=orthogonalEdgeStyle;rounded=0;orthogonalLoop=1;jettySize=auto;html=1;" edge="1" parent="hkqt5J7uNssLq77rhA-l-1" source="hkqt5J7uNssLq77rhA-l-90" target="hkqt5J7uNssLq77rhA-l-92">
          <mxGeometry relative="1" as="geometry" />
        </mxCell>
        <mxCell id="hkqt5J7uNssLq77rhA-l-89" value="yes" style="edgeLabel;html=1;align=center;verticalAlign=middle;resizable=0;points=[];" vertex="1" connectable="0" parent="hkqt5J7uNssLq77rhA-l-88">
          <mxGeometry x="-0.1556" y="-2" relative="1" as="geometry">
            <mxPoint as="offset" />
          </mxGeometry>
        </mxCell>
        <mxCell id="hkqt5J7uNssLq77rhA-l-90" value="success searching data" style="rhombus;whiteSpace=wrap;html=1;" vertex="1" parent="hkqt5J7uNssLq77rhA-l-1">
          <mxGeometry x="717" y="1010" width="80" height="80" as="geometry" />
        </mxCell>
        <mxCell id="hkqt5J7uNssLq77rhA-l-91" value="return error" style="shape=parallelogram;perimeter=parallelogramPerimeter;whiteSpace=wrap;html=1;fixedSize=1;" vertex="1" parent="hkqt5J7uNssLq77rhA-l-1">
          <mxGeometry x="560" y="1020" width="120" height="60" as="geometry" />
        </mxCell>
        <mxCell id="hkqt5J7uNssLq77rhA-l-92" value="retun data" style="shape=parallelogram;perimeter=parallelogramPerimeter;whiteSpace=wrap;html=1;fixedSize=1;" vertex="1" parent="hkqt5J7uNssLq77rhA-l-1">
          <mxGeometry x="697" y="1180" width="120" height="60" as="geometry" />
        </mxCell>
      </root>
    </mxGraphModel>
  </diagram>
  <diagram name="update" id="VAh9iOTRcDJanl368s2-">
    <mxGraphModel dx="880" dy="446" grid="1" gridSize="10" guides="1" tooltips="1" connect="1" arrows="1" fold="1" page="1" pageScale="1" pageWidth="850" pageHeight="1100" math="0" shadow="0">
      <root>
        <mxCell id="xry3iyFIQO3kwwPL8SPI-0" />
        <mxCell id="xry3iyFIQO3kwwPL8SPI-1" parent="xry3iyFIQO3kwwPL8SPI-0" />
        <mxCell id="xry3iyFIQO3kwwPL8SPI-2" value="&lt;h1&gt;application_handling_cost&lt;/h1&gt;&lt;div&gt;update&lt;/div&gt;" style="text;html=1;strokeColor=none;fillColor=none;spacing=5;spacingTop=-20;whiteSpace=wrap;overflow=hidden;rounded=0;" vertex="1" parent="xry3iyFIQO3kwwPL8SPI-1">
          <mxGeometry x="20" y="20" width="330" height="80" as="geometry" />
        </mxCell>
        <mxCell id="xry3iyFIQO3kwwPL8SPI-3" value="data :&lt;br&gt;id&lt;br style=&quot;border-color: var(--border-color);&quot;&gt;name&lt;br style=&quot;border-color: var(--border-color);&quot;&gt;nominal&lt;br&gt;unit" style="text;html=1;strokeColor=none;fillColor=none;align=center;verticalAlign=middle;whiteSpace=wrap;rounded=0;" vertex="1" parent="xry3iyFIQO3kwwPL8SPI-1">
          <mxGeometry x="210" y="70" width="120" height="70" as="geometry" />
        </mxCell>
        <mxCell id="xry3iyFIQO3kwwPL8SPI-4" value="" style="edgeStyle=orthogonalEdgeStyle;rounded=0;orthogonalLoop=1;jettySize=auto;html=1;" edge="1" parent="xry3iyFIQO3kwwPL8SPI-1">
          <mxGeometry relative="1" as="geometry">
            <mxPoint x="83" y="160" as="sourcePoint" />
            <mxPoint x="83" y="190" as="targetPoint" />
          </mxGeometry>
        </mxCell>
        <mxCell id="xry3iyFIQO3kwwPL8SPI-5" value="hit endpoint with data" style="ellipse;whiteSpace=wrap;html=1;" vertex="1" parent="xry3iyFIQO3kwwPL8SPI-1">
          <mxGeometry x="40" y="100" width="110" height="60" as="geometry" />
        </mxCell>
        <mxCell id="xry3iyFIQO3kwwPL8SPI-6" value="" style="edgeStyle=orthogonalEdgeStyle;rounded=0;orthogonalLoop=1;jettySize=auto;html=1;" edge="1" parent="xry3iyFIQO3kwwPL8SPI-1">
          <mxGeometry relative="1" as="geometry">
            <mxPoint x="83" y="250" as="sourcePoint" />
            <mxPoint x="83" y="300" as="targetPoint" />
          </mxGeometry>
        </mxCell>
        <mxCell id="xry3iyFIQO3kwwPL8SPI-7" value="" style="edgeStyle=orthogonalEdgeStyle;rounded=0;orthogonalLoop=1;jettySize=auto;html=1;" edge="1" parent="xry3iyFIQO3kwwPL8SPI-1" source="xry3iyFIQO3kwwPL8SPI-8" target="xry3iyFIQO3kwwPL8SPI-17">
          <mxGeometry relative="1" as="geometry" />
        </mxCell>
        <mxCell id="xry3iyFIQO3kwwPL8SPI-8" value="&#xa;&lt;span style=&quot;color: rgb(0, 0, 0); font-family: Helvetica; font-size: 12px; font-style: normal; font-variant-ligatures: normal; font-variant-caps: normal; font-weight: 400; letter-spacing: normal; orphans: 2; text-align: center; text-indent: 0px; text-transform: none; widows: 2; word-spacing: 0px; -webkit-text-stroke-width: 0px; background-color: rgb(251, 251, 251); text-decoration-thickness: initial; text-decoration-style: initial; text-decoration-color: initial; float: none; display: inline !important;&quot;&gt;process In controller&lt;/span&gt;&#xa;&#xa;" style="whiteSpace=wrap;html=1;" vertex="1" parent="xry3iyFIQO3kwwPL8SPI-1">
          <mxGeometry x="35" y="190" width="120" height="60" as="geometry" />
        </mxCell>
        <mxCell id="xry3iyFIQO3kwwPL8SPI-9" value="" style="edgeStyle=orthogonalEdgeStyle;rounded=0;orthogonalLoop=1;jettySize=auto;html=1;" edge="1" parent="xry3iyFIQO3kwwPL8SPI-1">
          <mxGeometry relative="1" as="geometry">
            <mxPoint x="81" y="360" as="sourcePoint" />
            <mxPoint x="81" y="400" as="targetPoint" />
          </mxGeometry>
        </mxCell>
        <mxCell id="xry3iyFIQO3kwwPL8SPI-10" value="" style="edgeStyle=orthogonalEdgeStyle;rounded=0;orthogonalLoop=1;jettySize=auto;html=1;" edge="1" parent="xry3iyFIQO3kwwPL8SPI-1">
          <mxGeometry relative="1" as="geometry">
            <mxPoint x="99" y="300" as="sourcePoint" />
            <mxPoint x="99" y="250" as="targetPoint" />
          </mxGeometry>
        </mxCell>
        <mxCell id="xry3iyFIQO3kwwPL8SPI-11" value="process In usecase" style="whiteSpace=wrap;html=1;" vertex="1" parent="xry3iyFIQO3kwwPL8SPI-1">
          <mxGeometry x="35" y="300" width="120" height="60" as="geometry" />
        </mxCell>
        <mxCell id="xry3iyFIQO3kwwPL8SPI-12" value="" style="edgeStyle=orthogonalEdgeStyle;rounded=0;orthogonalLoop=1;jettySize=auto;html=1;" edge="1" parent="xry3iyFIQO3kwwPL8SPI-1">
          <mxGeometry relative="1" as="geometry">
            <mxPoint x="81" y="460" as="sourcePoint" />
            <mxPoint x="81" y="500" as="targetPoint" />
          </mxGeometry>
        </mxCell>
        <mxCell id="xry3iyFIQO3kwwPL8SPI-13" value="" style="edgeStyle=orthogonalEdgeStyle;rounded=0;orthogonalLoop=1;jettySize=auto;html=1;" edge="1" parent="xry3iyFIQO3kwwPL8SPI-1">
          <mxGeometry relative="1" as="geometry">
            <mxPoint x="99" y="400" as="sourcePoint" />
            <mxPoint x="99" y="360" as="targetPoint" />
          </mxGeometry>
        </mxCell>
        <mxCell id="xry3iyFIQO3kwwPL8SPI-14" value="process In repository" style="whiteSpace=wrap;html=1;" vertex="1" parent="xry3iyFIQO3kwwPL8SPI-1">
          <mxGeometry x="35" y="400" width="120" height="60" as="geometry" />
        </mxCell>
        <mxCell id="xry3iyFIQO3kwwPL8SPI-15" value="" style="edgeStyle=orthogonalEdgeStyle;rounded=0;orthogonalLoop=1;jettySize=auto;html=1;" edge="1" parent="xry3iyFIQO3kwwPL8SPI-1">
          <mxGeometry relative="1" as="geometry">
            <mxPoint x="105" y="500" as="sourcePoint" />
            <mxPoint x="105" y="460" as="targetPoint" />
          </mxGeometry>
        </mxCell>
        <mxCell id="xry3iyFIQO3kwwPL8SPI-16" value="update in database" style="shape=cylinder3;whiteSpace=wrap;html=1;boundedLbl=1;backgroundOutline=1;size=15;" vertex="1" parent="xry3iyFIQO3kwwPL8SPI-1">
          <mxGeometry x="65" y="500" width="60" height="80" as="geometry" />
        </mxCell>
        <mxCell id="xry3iyFIQO3kwwPL8SPI-17" value="return api" style="shape=parallelogram;perimeter=parallelogramPerimeter;whiteSpace=wrap;html=1;fixedSize=1;" vertex="1" parent="xry3iyFIQO3kwwPL8SPI-1">
          <mxGeometry x="200" y="190" width="120" height="60" as="geometry" />
        </mxCell>
        <mxCell id="xry3iyFIQO3kwwPL8SPI-18" value="&lt;h1 style=&quot;border-color: var(--border-color);&quot;&gt;Controller&lt;/h1&gt;&lt;h1&gt;&lt;div style=&quot;border-color: var(--border-color); font-size: 12px; font-weight: 400;&quot;&gt;Process in controller layer&lt;/div&gt;&lt;/h1&gt;" style="text;html=1;strokeColor=none;fillColor=none;spacing=5;spacingTop=-20;whiteSpace=wrap;overflow=hidden;rounded=0;" vertex="1" parent="xry3iyFIQO3kwwPL8SPI-1">
          <mxGeometry x="420" y="30" width="190" height="80" as="geometry" />
        </mxCell>
        <mxCell id="xry3iyFIQO3kwwPL8SPI-19" value="" style="edgeStyle=orthogonalEdgeStyle;rounded=0;orthogonalLoop=1;jettySize=auto;html=1;" edge="1" parent="xry3iyFIQO3kwwPL8SPI-1" source="xry3iyFIQO3kwwPL8SPI-20" target="xry3iyFIQO3kwwPL8SPI-22">
          <mxGeometry relative="1" as="geometry" />
        </mxCell>
        <mxCell id="xry3iyFIQO3kwwPL8SPI-20" value="start" style="ellipse;whiteSpace=wrap;html=1;" vertex="1" parent="xry3iyFIQO3kwwPL8SPI-1">
          <mxGeometry x="600" y="55" width="70" height="40" as="geometry" />
        </mxCell>
        <mxCell id="xry3iyFIQO3kwwPL8SPI-21" value="" style="edgeStyle=orthogonalEdgeStyle;rounded=0;orthogonalLoop=1;jettySize=auto;html=1;" edge="1" parent="xry3iyFIQO3kwwPL8SPI-1" source="xry3iyFIQO3kwwPL8SPI-22" target="xry3iyFIQO3kwwPL8SPI-27">
          <mxGeometry relative="1" as="geometry" />
        </mxCell>
        <mxCell id="xry3iyFIQO3kwwPL8SPI-22" value="Accepting data in request body" style="whiteSpace=wrap;html=1;" vertex="1" parent="xry3iyFIQO3kwwPL8SPI-1">
          <mxGeometry x="582.5" y="140" width="105" height="45" as="geometry" />
        </mxCell>
        <mxCell id="xry3iyFIQO3kwwPL8SPI-23" value="" style="edgeStyle=orthogonalEdgeStyle;rounded=0;orthogonalLoop=1;jettySize=auto;html=1;" edge="1" parent="xry3iyFIQO3kwwPL8SPI-1" source="xry3iyFIQO3kwwPL8SPI-27" target="xry3iyFIQO3kwwPL8SPI-28">
          <mxGeometry relative="1" as="geometry" />
        </mxCell>
        <mxCell id="xry3iyFIQO3kwwPL8SPI-24" value="no" style="edgeLabel;html=1;align=center;verticalAlign=middle;resizable=0;points=[];" vertex="1" connectable="0" parent="xry3iyFIQO3kwwPL8SPI-23">
          <mxGeometry x="-0.0571" relative="1" as="geometry">
            <mxPoint y="1" as="offset" />
          </mxGeometry>
        </mxCell>
        <mxCell id="xry3iyFIQO3kwwPL8SPI-25" value="" style="edgeStyle=orthogonalEdgeStyle;rounded=0;orthogonalLoop=1;jettySize=auto;html=1;" edge="1" parent="xry3iyFIQO3kwwPL8SPI-1" source="xry3iyFIQO3kwwPL8SPI-27" target="xry3iyFIQO3kwwPL8SPI-31">
          <mxGeometry relative="1" as="geometry" />
        </mxCell>
        <mxCell id="xry3iyFIQO3kwwPL8SPI-26" value="go to usecase" style="edgeLabel;html=1;align=center;verticalAlign=middle;resizable=0;points=[];" vertex="1" connectable="0" parent="xry3iyFIQO3kwwPL8SPI-25">
          <mxGeometry x="-0.1444" y="4" relative="1" as="geometry">
            <mxPoint as="offset" />
          </mxGeometry>
        </mxCell>
        <mxCell id="xry3iyFIQO3kwwPL8SPI-27" value="success accept data" style="rhombus;whiteSpace=wrap;html=1;" vertex="1" parent="xry3iyFIQO3kwwPL8SPI-1">
          <mxGeometry x="595" y="247.5" width="80" height="80" as="geometry" />
        </mxCell>
        <mxCell id="xry3iyFIQO3kwwPL8SPI-28" value="return error to api" style="shape=parallelogram;perimeter=parallelogramPerimeter;whiteSpace=wrap;html=1;fixedSize=1;" vertex="1" parent="xry3iyFIQO3kwwPL8SPI-1">
          <mxGeometry x="716" y="257.5" width="120" height="60" as="geometry" />
        </mxCell>
        <mxCell id="xry3iyFIQO3kwwPL8SPI-29" value="" style="edgeStyle=orthogonalEdgeStyle;rounded=0;orthogonalLoop=1;jettySize=auto;html=1;" edge="1" parent="xry3iyFIQO3kwwPL8SPI-1" source="xry3iyFIQO3kwwPL8SPI-31">
          <mxGeometry relative="1" as="geometry">
            <mxPoint x="635" y="557.5" as="targetPoint" />
          </mxGeometry>
        </mxCell>
        <mxCell id="xry3iyFIQO3kwwPL8SPI-30" value="return result" style="edgeLabel;html=1;align=center;verticalAlign=middle;resizable=0;points=[];" vertex="1" connectable="0" parent="xry3iyFIQO3kwwPL8SPI-29">
          <mxGeometry x="0.0125" y="1" relative="1" as="geometry">
            <mxPoint as="offset" />
          </mxGeometry>
        </mxCell>
        <mxCell id="xry3iyFIQO3kwwPL8SPI-31" value="Process in usecase" style="whiteSpace=wrap;html=1;" vertex="1" parent="xry3iyFIQO3kwwPL8SPI-1">
          <mxGeometry x="575" y="417.5" width="120" height="60" as="geometry" />
        </mxCell>
        <mxCell id="xry3iyFIQO3kwwPL8SPI-32" value="" style="edgeStyle=orthogonalEdgeStyle;rounded=0;orthogonalLoop=1;jettySize=auto;html=1;" edge="1" parent="xry3iyFIQO3kwwPL8SPI-1" source="xry3iyFIQO3kwwPL8SPI-36" target="xry3iyFIQO3kwwPL8SPI-37">
          <mxGeometry relative="1" as="geometry" />
        </mxCell>
        <mxCell id="xry3iyFIQO3kwwPL8SPI-33" value="yes" style="edgeLabel;html=1;align=center;verticalAlign=middle;resizable=0;points=[];" vertex="1" connectable="0" parent="xry3iyFIQO3kwwPL8SPI-32">
          <mxGeometry x="-0.1714" y="1" relative="1" as="geometry">
            <mxPoint as="offset" />
          </mxGeometry>
        </mxCell>
        <mxCell id="xry3iyFIQO3kwwPL8SPI-34" value="" style="edgeStyle=orthogonalEdgeStyle;rounded=0;orthogonalLoop=1;jettySize=auto;html=1;" edge="1" parent="xry3iyFIQO3kwwPL8SPI-1" source="xry3iyFIQO3kwwPL8SPI-36" target="xry3iyFIQO3kwwPL8SPI-38">
          <mxGeometry relative="1" as="geometry" />
        </mxCell>
        <mxCell id="xry3iyFIQO3kwwPL8SPI-35" value="no" style="edgeLabel;html=1;align=center;verticalAlign=middle;resizable=0;points=[];" vertex="1" connectable="0" parent="xry3iyFIQO3kwwPL8SPI-34">
          <mxGeometry x="-0.1714" y="-2" relative="1" as="geometry">
            <mxPoint as="offset" />
          </mxGeometry>
        </mxCell>
        <mxCell id="xry3iyFIQO3kwwPL8SPI-36" value="get error resutl?" style="rhombus;whiteSpace=wrap;html=1;" vertex="1" parent="xry3iyFIQO3kwwPL8SPI-1">
          <mxGeometry x="595" y="560" width="80" height="80" as="geometry" />
        </mxCell>
        <mxCell id="xry3iyFIQO3kwwPL8SPI-37" value="return error to api" style="shape=parallelogram;perimeter=parallelogramPerimeter;whiteSpace=wrap;html=1;fixedSize=1;" vertex="1" parent="xry3iyFIQO3kwwPL8SPI-1">
          <mxGeometry x="415" y="570" width="120" height="60" as="geometry" />
        </mxCell>
        <mxCell id="xry3iyFIQO3kwwPL8SPI-38" value="return massage success update data to API" style="shape=parallelogram;perimeter=parallelogramPerimeter;whiteSpace=wrap;html=1;fixedSize=1;" vertex="1" parent="xry3iyFIQO3kwwPL8SPI-1">
          <mxGeometry x="722" y="570" width="120" height="60" as="geometry" />
        </mxCell>
        <mxCell id="xry3iyFIQO3kwwPL8SPI-39" value="&lt;h1&gt;Usecase&lt;/h1&gt;&lt;div&gt;process in usecase layer&lt;/div&gt;" style="text;html=1;strokeColor=none;fillColor=none;spacing=5;spacingTop=-20;whiteSpace=wrap;overflow=hidden;rounded=0;" vertex="1" parent="xry3iyFIQO3kwwPL8SPI-1">
          <mxGeometry x="10" y="620" width="160" height="70" as="geometry" />
        </mxCell>
        <mxCell id="xry3iyFIQO3kwwPL8SPI-40" value="" style="edgeStyle=orthogonalEdgeStyle;rounded=0;orthogonalLoop=1;jettySize=auto;html=1;" edge="1" parent="xry3iyFIQO3kwwPL8SPI-1" source="xry3iyFIQO3kwwPL8SPI-42" target="xry3iyFIQO3kwwPL8SPI-50">
          <mxGeometry relative="1" as="geometry" />
        </mxCell>
        <mxCell id="xry3iyFIQO3kwwPL8SPI-41" value="no" style="edgeLabel;html=1;align=center;verticalAlign=middle;resizable=0;points=[];" vertex="1" connectable="0" parent="xry3iyFIQO3kwwPL8SPI-40">
          <mxGeometry x="-0.08" y="1" relative="1" as="geometry">
            <mxPoint as="offset" />
          </mxGeometry>
        </mxCell>
        <mxCell id="xry3iyFIQO3kwwPL8SPI-42" value="GetRole() == admin" style="rhombus;whiteSpace=wrap;html=1;" vertex="1" parent="xry3iyFIQO3kwwPL8SPI-1">
          <mxGeometry x="174" y="840" width="80" height="80" as="geometry" />
        </mxCell>
        <mxCell id="xry3iyFIQO3kwwPL8SPI-43" value="" style="edgeStyle=orthogonalEdgeStyle;rounded=0;orthogonalLoop=1;jettySize=auto;html=1;exitX=0.5;exitY=1;exitDx=0;exitDy=0;" edge="1" parent="xry3iyFIQO3kwwPL8SPI-1" source="pJVrPEuzGXieX5YMCBty-8" target="xry3iyFIQO3kwwPL8SPI-49">
          <mxGeometry relative="1" as="geometry">
            <mxPoint x="214" y="1050" as="sourcePoint" />
          </mxGeometry>
        </mxCell>
        <mxCell id="pJVrPEuzGXieX5YMCBty-13" value="no" style="edgeLabel;html=1;align=center;verticalAlign=middle;resizable=0;points=[];" vertex="1" connectable="0" parent="xry3iyFIQO3kwwPL8SPI-43">
          <mxGeometry x="-0.3171" relative="1" as="geometry">
            <mxPoint as="offset" />
          </mxGeometry>
        </mxCell>
        <mxCell id="xry3iyFIQO3kwwPL8SPI-47" value="" style="edgeStyle=orthogonalEdgeStyle;rounded=0;orthogonalLoop=1;jettySize=auto;html=1;" edge="1" parent="xry3iyFIQO3kwwPL8SPI-1" source="xry3iyFIQO3kwwPL8SPI-49" target="xry3iyFIQO3kwwPL8SPI-56">
          <mxGeometry relative="1" as="geometry" />
        </mxCell>
        <mxCell id="xry3iyFIQO3kwwPL8SPI-48" value="no" style="edgeLabel;html=1;align=center;verticalAlign=middle;resizable=0;points=[];" vertex="1" connectable="0" parent="xry3iyFIQO3kwwPL8SPI-47">
          <mxGeometry x="-0.2414" y="-2" relative="1" as="geometry">
            <mxPoint as="offset" />
          </mxGeometry>
        </mxCell>
        <mxCell id="pJVrPEuzGXieX5YMCBty-17" value="" style="edgeStyle=orthogonalEdgeStyle;rounded=0;orthogonalLoop=1;jettySize=auto;html=1;" edge="1" parent="xry3iyFIQO3kwwPL8SPI-1" source="xry3iyFIQO3kwwPL8SPI-49" target="pJVrPEuzGXieX5YMCBty-16">
          <mxGeometry relative="1" as="geometry" />
        </mxCell>
        <mxCell id="pJVrPEuzGXieX5YMCBty-19" value="yes" style="edgeLabel;html=1;align=center;verticalAlign=middle;resizable=0;points=[];" vertex="1" connectable="0" parent="pJVrPEuzGXieX5YMCBty-17">
          <mxGeometry x="-0.3636" y="-1" relative="1" as="geometry">
            <mxPoint as="offset" />
          </mxGeometry>
        </mxCell>
        <mxCell id="xry3iyFIQO3kwwPL8SPI-49" value="name == nul" style="rhombus;whiteSpace=wrap;html=1;" vertex="1" parent="xry3iyFIQO3kwwPL8SPI-1">
          <mxGeometry x="174" y="1289" width="80" height="80" as="geometry" />
        </mxCell>
        <mxCell id="xry3iyFIQO3kwwPL8SPI-50" value="return : you are not allowed to do this." style="shape=parallelogram;perimeter=parallelogramPerimeter;whiteSpace=wrap;html=1;fixedSize=1;" vertex="1" parent="xry3iyFIQO3kwwPL8SPI-1">
          <mxGeometry x="294" y="850" width="120" height="60" as="geometry" />
        </mxCell>
        <mxCell id="xry3iyFIQO3kwwPL8SPI-54" value="" style="edgeStyle=orthogonalEdgeStyle;rounded=0;orthogonalLoop=1;jettySize=auto;html=1;" edge="1" parent="xry3iyFIQO3kwwPL8SPI-1" source="xry3iyFIQO3kwwPL8SPI-56" target="xry3iyFIQO3kwwPL8SPI-64">
          <mxGeometry relative="1" as="geometry" />
        </mxCell>
        <mxCell id="xry3iyFIQO3kwwPL8SPI-55" value="no" style="edgeLabel;html=1;align=center;verticalAlign=middle;resizable=0;points=[];" vertex="1" connectable="0" parent="xry3iyFIQO3kwwPL8SPI-54">
          <mxGeometry x="-0.32" relative="1" as="geometry">
            <mxPoint as="offset" />
          </mxGeometry>
        </mxCell>
        <mxCell id="pJVrPEuzGXieX5YMCBty-21" value="" style="edgeStyle=orthogonalEdgeStyle;rounded=0;orthogonalLoop=1;jettySize=auto;html=1;" edge="1" parent="xry3iyFIQO3kwwPL8SPI-1" source="xry3iyFIQO3kwwPL8SPI-56" target="pJVrPEuzGXieX5YMCBty-20">
          <mxGeometry relative="1" as="geometry" />
        </mxCell>
        <mxCell id="pJVrPEuzGXieX5YMCBty-25" value="yes" style="edgeLabel;html=1;align=center;verticalAlign=middle;resizable=0;points=[];" vertex="1" connectable="0" parent="pJVrPEuzGXieX5YMCBty-21">
          <mxGeometry x="-0.2" y="-2" relative="1" as="geometry">
            <mxPoint as="offset" />
          </mxGeometry>
        </mxCell>
        <mxCell id="xry3iyFIQO3kwwPL8SPI-56" value="nominal == null" style="rhombus;whiteSpace=wrap;html=1;" vertex="1" parent="xry3iyFIQO3kwwPL8SPI-1">
          <mxGeometry x="174" y="1427" width="80" height="80" as="geometry" />
        </mxCell>
        <mxCell id="xry3iyFIQO3kwwPL8SPI-57" value="" style="edgeStyle=orthogonalEdgeStyle;rounded=0;orthogonalLoop=1;jettySize=auto;html=1;" edge="1" parent="xry3iyFIQO3kwwPL8SPI-1" source="xry3iyFIQO3kwwPL8SPI-58" target="xry3iyFIQO3kwwPL8SPI-42">
          <mxGeometry relative="1" as="geometry" />
        </mxCell>
        <mxCell id="xry3iyFIQO3kwwPL8SPI-58" value="data" style="ellipse;whiteSpace=wrap;html=1;" vertex="1" parent="xry3iyFIQO3kwwPL8SPI-1">
          <mxGeometry x="154" y="721" width="120" height="80" as="geometry" />
        </mxCell>
        <mxCell id="xry3iyFIQO3kwwPL8SPI-62" value="" style="edgeStyle=orthogonalEdgeStyle;rounded=0;orthogonalLoop=1;jettySize=auto;html=1;" edge="1" parent="xry3iyFIQO3kwwPL8SPI-1" source="xry3iyFIQO3kwwPL8SPI-64" target="xry3iyFIQO3kwwPL8SPI-69">
          <mxGeometry relative="1" as="geometry" />
        </mxCell>
        <mxCell id="xry3iyFIQO3kwwPL8SPI-63" value="no" style="edgeLabel;html=1;align=center;verticalAlign=middle;resizable=0;points=[];" vertex="1" connectable="0" parent="xry3iyFIQO3kwwPL8SPI-62">
          <mxGeometry x="-0.225" y="1" relative="1" as="geometry">
            <mxPoint as="offset" />
          </mxGeometry>
        </mxCell>
        <mxCell id="pJVrPEuzGXieX5YMCBty-24" value="" style="edgeStyle=orthogonalEdgeStyle;rounded=0;orthogonalLoop=1;jettySize=auto;html=1;" edge="1" parent="xry3iyFIQO3kwwPL8SPI-1" source="xry3iyFIQO3kwwPL8SPI-64" target="pJVrPEuzGXieX5YMCBty-23">
          <mxGeometry relative="1" as="geometry" />
        </mxCell>
        <mxCell id="pJVrPEuzGXieX5YMCBty-26" value="yes" style="edgeLabel;html=1;align=center;verticalAlign=middle;resizable=0;points=[];" vertex="1" connectable="0" parent="pJVrPEuzGXieX5YMCBty-24">
          <mxGeometry x="-0.2571" y="-2" relative="1" as="geometry">
            <mxPoint as="offset" />
          </mxGeometry>
        </mxCell>
        <mxCell id="xry3iyFIQO3kwwPL8SPI-64" value="nominal &amp;lt;= 0" style="rhombus;whiteSpace=wrap;html=1;" vertex="1" parent="xry3iyFIQO3kwwPL8SPI-1">
          <mxGeometry x="174" y="1557" width="80" height="80" as="geometry" />
        </mxCell>
        <mxCell id="xry3iyFIQO3kwwPL8SPI-68" value="" style="edgeStyle=orthogonalEdgeStyle;rounded=0;orthogonalLoop=1;jettySize=auto;html=1;" edge="1" parent="xry3iyFIQO3kwwPL8SPI-1" source="xry3iyFIQO3kwwPL8SPI-69" target="xry3iyFIQO3kwwPL8SPI-72">
          <mxGeometry relative="1" as="geometry" />
        </mxCell>
        <mxCell id="pJVrPEuzGXieX5YMCBty-31" value="no" style="edgeLabel;html=1;align=center;verticalAlign=middle;resizable=0;points=[];" vertex="1" connectable="0" parent="xry3iyFIQO3kwwPL8SPI-68">
          <mxGeometry x="-0.6222" relative="1" as="geometry">
            <mxPoint as="offset" />
          </mxGeometry>
        </mxCell>
        <mxCell id="pJVrPEuzGXieX5YMCBty-28" value="" style="edgeStyle=orthogonalEdgeStyle;rounded=0;orthogonalLoop=1;jettySize=auto;html=1;" edge="1" parent="xry3iyFIQO3kwwPL8SPI-1" source="xry3iyFIQO3kwwPL8SPI-69" target="pJVrPEuzGXieX5YMCBty-27">
          <mxGeometry relative="1" as="geometry" />
        </mxCell>
        <mxCell id="pJVrPEuzGXieX5YMCBty-30" value="yes" style="edgeLabel;html=1;align=center;verticalAlign=middle;resizable=0;points=[];" vertex="1" connectable="0" parent="pJVrPEuzGXieX5YMCBty-28">
          <mxGeometry x="-0.2667" y="2" relative="1" as="geometry">
            <mxPoint as="offset" />
          </mxGeometry>
        </mxCell>
        <mxCell id="xry3iyFIQO3kwwPL8SPI-69" value="unit == null" style="rhombus;whiteSpace=wrap;html=1;" vertex="1" parent="xry3iyFIQO3kwwPL8SPI-1">
          <mxGeometry x="174" y="1717" width="80" height="80" as="geometry" />
        </mxCell>
        <mxCell id="xry3iyFIQO3kwwPL8SPI-71" value="" style="edgeStyle=orthogonalEdgeStyle;rounded=0;orthogonalLoop=1;jettySize=auto;html=1;" edge="1" parent="xry3iyFIQO3kwwPL8SPI-1" source="xry3iyFIQO3kwwPL8SPI-72" target="xry3iyFIQO3kwwPL8SPI-76">
          <mxGeometry relative="1" as="geometry" />
        </mxCell>
        <mxCell id="xry3iyFIQO3kwwPL8SPI-72" value="proses crete to database in repository" style="rounded=1;whiteSpace=wrap;html=1;" vertex="1" parent="xry3iyFIQO3kwwPL8SPI-1">
          <mxGeometry x="154" y="1887" width="120" height="60" as="geometry" />
        </mxCell>
        <mxCell id="xry3iyFIQO3kwwPL8SPI-73" value="" style="edgeStyle=orthogonalEdgeStyle;rounded=0;orthogonalLoop=1;jettySize=auto;html=1;" edge="1" parent="xry3iyFIQO3kwwPL8SPI-1" source="xry3iyFIQO3kwwPL8SPI-76" target="xry3iyFIQO3kwwPL8SPI-77">
          <mxGeometry relative="1" as="geometry" />
        </mxCell>
        <mxCell id="xry3iyFIQO3kwwPL8SPI-74" value="no" style="edgeLabel;html=1;align=center;verticalAlign=middle;resizable=0;points=[];" vertex="1" connectable="0" parent="xry3iyFIQO3kwwPL8SPI-73">
          <mxGeometry x="-0.1429" y="1" relative="1" as="geometry">
            <mxPoint as="offset" />
          </mxGeometry>
        </mxCell>
        <mxCell id="xry3iyFIQO3kwwPL8SPI-75" value="" style="edgeStyle=orthogonalEdgeStyle;rounded=0;orthogonalLoop=1;jettySize=auto;html=1;" edge="1" parent="xry3iyFIQO3kwwPL8SPI-1" source="xry3iyFIQO3kwwPL8SPI-76" target="xry3iyFIQO3kwwPL8SPI-78">
          <mxGeometry relative="1" as="geometry" />
        </mxCell>
        <mxCell id="pJVrPEuzGXieX5YMCBty-32" value="yes" style="edgeLabel;html=1;align=center;verticalAlign=middle;resizable=0;points=[];" vertex="1" connectable="0" parent="xry3iyFIQO3kwwPL8SPI-75">
          <mxGeometry x="-0.2571" relative="1" as="geometry">
            <mxPoint as="offset" />
          </mxGeometry>
        </mxCell>
        <mxCell id="xry3iyFIQO3kwwPL8SPI-76" value="success creating data" style="rhombus;whiteSpace=wrap;html=1;rounded=1;" vertex="1" parent="xry3iyFIQO3kwwPL8SPI-1">
          <mxGeometry x="174" y="1990" width="80" height="80" as="geometry" />
        </mxCell>
        <mxCell id="xry3iyFIQO3kwwPL8SPI-77" value="return error" style="shape=parallelogram;perimeter=parallelogramPerimeter;whiteSpace=wrap;html=1;fixedSize=1;rounded=1;" vertex="1" parent="xry3iyFIQO3kwwPL8SPI-1">
          <mxGeometry x="314" y="2000" width="120" height="60" as="geometry" />
        </mxCell>
        <mxCell id="xry3iyFIQO3kwwPL8SPI-78" value="returm success" style="shape=parallelogram;perimeter=parallelogramPerimeter;whiteSpace=wrap;html=1;fixedSize=1;rounded=1;" vertex="1" parent="xry3iyFIQO3kwwPL8SPI-1">
          <mxGeometry x="154" y="2140" width="120" height="60" as="geometry" />
        </mxCell>
        <mxCell id="xry3iyFIQO3kwwPL8SPI-79" value="&lt;h1&gt;repo&lt;/h1&gt;&lt;div&gt;process in layer repository&lt;/div&gt;" style="text;html=1;strokeColor=none;fillColor=none;spacing=5;spacingTop=-20;whiteSpace=wrap;overflow=hidden;rounded=0;" vertex="1" parent="xry3iyFIQO3kwwPL8SPI-1">
          <mxGeometry x="550" y="665" width="160" height="70" as="geometry" />
        </mxCell>
        <mxCell id="xry3iyFIQO3kwwPL8SPI-80" value="" style="edgeStyle=orthogonalEdgeStyle;rounded=0;orthogonalLoop=1;jettySize=auto;html=1;" edge="1" parent="xry3iyFIQO3kwwPL8SPI-1" source="xry3iyFIQO3kwwPL8SPI-81" target="xry3iyFIQO3kwwPL8SPI-84">
          <mxGeometry relative="1" as="geometry" />
        </mxCell>
        <mxCell id="xry3iyFIQO3kwwPL8SPI-81" value="data" style="ellipse;whiteSpace=wrap;html=1;" vertex="1" parent="xry3iyFIQO3kwwPL8SPI-1">
          <mxGeometry x="697" y="721" width="120" height="80" as="geometry" />
        </mxCell>
        <mxCell id="xry3iyFIQO3kwwPL8SPI-82" value="" style="edgeStyle=orthogonalEdgeStyle;rounded=0;orthogonalLoop=1;jettySize=auto;html=1;" edge="1" parent="xry3iyFIQO3kwwPL8SPI-1" source="xry3iyFIQO3kwwPL8SPI-84" target="xry3iyFIQO3kwwPL8SPI-85">
          <mxGeometry relative="1" as="geometry" />
        </mxCell>
        <mxCell id="xry3iyFIQO3kwwPL8SPI-83" value="" style="edgeStyle=orthogonalEdgeStyle;rounded=0;orthogonalLoop=1;jettySize=auto;html=1;" edge="1" parent="xry3iyFIQO3kwwPL8SPI-1" source="xry3iyFIQO3kwwPL8SPI-84" target="xry3iyFIQO3kwwPL8SPI-90">
          <mxGeometry relative="1" as="geometry" />
        </mxCell>
        <mxCell id="xry3iyFIQO3kwwPL8SPI-84" value="do query update to table appication_handle_cost" style="whiteSpace=wrap;html=1;" vertex="1" parent="xry3iyFIQO3kwwPL8SPI-1">
          <mxGeometry x="692" y="891" width="130" height="69" as="geometry" />
        </mxCell>
        <mxCell id="xry3iyFIQO3kwwPL8SPI-85" value="table application handle cost" style="shape=cylinder3;whiteSpace=wrap;html=1;boundedLbl=1;backgroundOutline=1;size=15;" vertex="1" parent="xry3iyFIQO3kwwPL8SPI-1">
          <mxGeometry x="560" y="885.5" width="60" height="80" as="geometry" />
        </mxCell>
        <mxCell id="xry3iyFIQO3kwwPL8SPI-86" value="" style="edgeStyle=orthogonalEdgeStyle;rounded=0;orthogonalLoop=1;jettySize=auto;html=1;" edge="1" parent="xry3iyFIQO3kwwPL8SPI-1" source="xry3iyFIQO3kwwPL8SPI-90" target="xry3iyFIQO3kwwPL8SPI-91">
          <mxGeometry relative="1" as="geometry" />
        </mxCell>
        <mxCell id="xry3iyFIQO3kwwPL8SPI-87" value="no" style="edgeLabel;html=1;align=center;verticalAlign=middle;resizable=0;points=[];" vertex="1" connectable="0" parent="xry3iyFIQO3kwwPL8SPI-86">
          <mxGeometry x="0.0566" y="1" relative="1" as="geometry">
            <mxPoint as="offset" />
          </mxGeometry>
        </mxCell>
        <mxCell id="xry3iyFIQO3kwwPL8SPI-88" value="" style="edgeStyle=orthogonalEdgeStyle;rounded=0;orthogonalLoop=1;jettySize=auto;html=1;" edge="1" parent="xry3iyFIQO3kwwPL8SPI-1" source="xry3iyFIQO3kwwPL8SPI-90" target="xry3iyFIQO3kwwPL8SPI-92">
          <mxGeometry relative="1" as="geometry" />
        </mxCell>
        <mxCell id="xry3iyFIQO3kwwPL8SPI-89" value="yes" style="edgeLabel;html=1;align=center;verticalAlign=middle;resizable=0;points=[];" vertex="1" connectable="0" parent="xry3iyFIQO3kwwPL8SPI-88">
          <mxGeometry x="-0.1556" y="-2" relative="1" as="geometry">
            <mxPoint as="offset" />
          </mxGeometry>
        </mxCell>
        <mxCell id="xry3iyFIQO3kwwPL8SPI-90" value="success creste data" style="rhombus;whiteSpace=wrap;html=1;" vertex="1" parent="xry3iyFIQO3kwwPL8SPI-1">
          <mxGeometry x="717" y="1010" width="80" height="80" as="geometry" />
        </mxCell>
        <mxCell id="xry3iyFIQO3kwwPL8SPI-91" value="return error" style="shape=parallelogram;perimeter=parallelogramPerimeter;whiteSpace=wrap;html=1;fixedSize=1;" vertex="1" parent="xry3iyFIQO3kwwPL8SPI-1">
          <mxGeometry x="560" y="1020" width="120" height="60" as="geometry" />
        </mxCell>
        <mxCell id="xry3iyFIQO3kwwPL8SPI-92" value="retun success" style="shape=parallelogram;perimeter=parallelogramPerimeter;whiteSpace=wrap;html=1;fixedSize=1;" vertex="1" parent="xry3iyFIQO3kwwPL8SPI-1">
          <mxGeometry x="697" y="1180" width="120" height="60" as="geometry" />
        </mxCell>
        <mxCell id="pJVrPEuzGXieX5YMCBty-1" value="" style="edgeStyle=orthogonalEdgeStyle;rounded=0;orthogonalLoop=1;jettySize=auto;html=1;exitX=0.5;exitY=1;exitDx=0;exitDy=0;" edge="1" parent="xry3iyFIQO3kwwPL8SPI-1" source="xry3iyFIQO3kwwPL8SPI-42" target="pJVrPEuzGXieX5YMCBty-0">
          <mxGeometry relative="1" as="geometry">
            <mxPoint x="214" y="920" as="sourcePoint" />
            <mxPoint x="214" y="1116" as="targetPoint" />
          </mxGeometry>
        </mxCell>
        <mxCell id="pJVrPEuzGXieX5YMCBty-3" value="" style="edgeStyle=orthogonalEdgeStyle;rounded=0;orthogonalLoop=1;jettySize=auto;html=1;" edge="1" parent="xry3iyFIQO3kwwPL8SPI-1" source="pJVrPEuzGXieX5YMCBty-0" target="pJVrPEuzGXieX5YMCBty-2">
          <mxGeometry relative="1" as="geometry" />
        </mxCell>
        <mxCell id="pJVrPEuzGXieX5YMCBty-4" value="yes" style="edgeLabel;html=1;align=center;verticalAlign=middle;resizable=0;points=[];" vertex="1" connectable="0" parent="pJVrPEuzGXieX5YMCBty-3">
          <mxGeometry x="-0.2" relative="1" as="geometry">
            <mxPoint as="offset" />
          </mxGeometry>
        </mxCell>
        <mxCell id="pJVrPEuzGXieX5YMCBty-0" value="id == null" style="rhombus;whiteSpace=wrap;html=1;" vertex="1" parent="xry3iyFIQO3kwwPL8SPI-1">
          <mxGeometry x="174" y="980" width="80" height="80" as="geometry" />
        </mxCell>
        <mxCell id="pJVrPEuzGXieX5YMCBty-2" value="id required" style="shape=parallelogram;perimeter=parallelogramPerimeter;whiteSpace=wrap;html=1;fixedSize=1;" vertex="1" parent="xry3iyFIQO3kwwPL8SPI-1">
          <mxGeometry x="314" y="990" width="120" height="60" as="geometry" />
        </mxCell>
        <mxCell id="pJVrPEuzGXieX5YMCBty-7" value="" style="edgeStyle=orthogonalEdgeStyle;rounded=0;orthogonalLoop=1;jettySize=auto;html=1;exitX=0.5;exitY=1;exitDx=0;exitDy=0;" edge="1" parent="xry3iyFIQO3kwwPL8SPI-1" source="pJVrPEuzGXieX5YMCBty-0" target="pJVrPEuzGXieX5YMCBty-6">
          <mxGeometry relative="1" as="geometry">
            <mxPoint x="214" y="1060" as="sourcePoint" />
            <mxPoint x="214" y="1289" as="targetPoint" />
          </mxGeometry>
        </mxCell>
        <mxCell id="pJVrPEuzGXieX5YMCBty-6" value="seach data by id" style="rounded=0;whiteSpace=wrap;html=1;" vertex="1" parent="xry3iyFIQO3kwwPL8SPI-1">
          <mxGeometry x="154" y="1090" width="120" height="60" as="geometry" />
        </mxCell>
        <mxCell id="pJVrPEuzGXieX5YMCBty-9" value="" style="edgeStyle=orthogonalEdgeStyle;rounded=0;orthogonalLoop=1;jettySize=auto;html=1;exitX=0.5;exitY=1;exitDx=0;exitDy=0;" edge="1" parent="xry3iyFIQO3kwwPL8SPI-1" source="pJVrPEuzGXieX5YMCBty-6" target="pJVrPEuzGXieX5YMCBty-8">
          <mxGeometry relative="1" as="geometry">
            <mxPoint x="214" y="1150" as="sourcePoint" />
            <mxPoint x="214" y="1289" as="targetPoint" />
          </mxGeometry>
        </mxCell>
        <mxCell id="pJVrPEuzGXieX5YMCBty-11" value="" style="edgeStyle=orthogonalEdgeStyle;rounded=0;orthogonalLoop=1;jettySize=auto;html=1;" edge="1" parent="xry3iyFIQO3kwwPL8SPI-1" source="pJVrPEuzGXieX5YMCBty-8" target="pJVrPEuzGXieX5YMCBty-10">
          <mxGeometry relative="1" as="geometry" />
        </mxCell>
        <mxCell id="pJVrPEuzGXieX5YMCBty-12" value="yes" style="edgeLabel;html=1;align=center;verticalAlign=middle;resizable=0;points=[];" vertex="1" connectable="0" parent="pJVrPEuzGXieX5YMCBty-11">
          <mxGeometry x="-0.1714" y="-3" relative="1" as="geometry">
            <mxPoint as="offset" />
          </mxGeometry>
        </mxCell>
        <mxCell id="pJVrPEuzGXieX5YMCBty-8" value="error search data" style="rhombus;whiteSpace=wrap;html=1;" vertex="1" parent="xry3iyFIQO3kwwPL8SPI-1">
          <mxGeometry x="174" y="1170" width="80" height="80" as="geometry" />
        </mxCell>
        <mxCell id="pJVrPEuzGXieX5YMCBty-10" value="return error" style="shape=parallelogram;perimeter=parallelogramPerimeter;whiteSpace=wrap;html=1;fixedSize=1;" vertex="1" parent="xry3iyFIQO3kwwPL8SPI-1">
          <mxGeometry x="314" y="1180" width="120" height="60" as="geometry" />
        </mxCell>
        <mxCell id="pJVrPEuzGXieX5YMCBty-18" style="edgeStyle=orthogonalEdgeStyle;rounded=0;orthogonalLoop=1;jettySize=auto;html=1;exitX=0.5;exitY=1;exitDx=0;exitDy=0;entryX=0;entryY=0.5;entryDx=0;entryDy=0;" edge="1" parent="xry3iyFIQO3kwwPL8SPI-1" source="pJVrPEuzGXieX5YMCBty-16" target="xry3iyFIQO3kwwPL8SPI-56">
          <mxGeometry relative="1" as="geometry" />
        </mxCell>
        <mxCell id="pJVrPEuzGXieX5YMCBty-16" value="name = name lama" style="whiteSpace=wrap;html=1;" vertex="1" parent="xry3iyFIQO3kwwPL8SPI-1">
          <mxGeometry x="10" y="1299" width="120" height="60" as="geometry" />
        </mxCell>
        <mxCell id="pJVrPEuzGXieX5YMCBty-22" style="edgeStyle=orthogonalEdgeStyle;rounded=0;orthogonalLoop=1;jettySize=auto;html=1;exitX=0.5;exitY=1;exitDx=0;exitDy=0;entryX=1;entryY=0.5;entryDx=0;entryDy=0;" edge="1" parent="xry3iyFIQO3kwwPL8SPI-1" source="pJVrPEuzGXieX5YMCBty-20" target="xry3iyFIQO3kwwPL8SPI-64">
          <mxGeometry relative="1" as="geometry" />
        </mxCell>
        <mxCell id="pJVrPEuzGXieX5YMCBty-20" value="nominal = nominal lama" style="whiteSpace=wrap;html=1;" vertex="1" parent="xry3iyFIQO3kwwPL8SPI-1">
          <mxGeometry x="314" y="1437" width="120" height="60" as="geometry" />
        </mxCell>
        <mxCell id="pJVrPEuzGXieX5YMCBty-23" value="return nominal must greather than zero" style="shape=parallelogram;perimeter=parallelogramPerimeter;whiteSpace=wrap;html=1;fixedSize=1;" vertex="1" parent="xry3iyFIQO3kwwPL8SPI-1">
          <mxGeometry x="5" y="1567" width="120" height="60" as="geometry" />
        </mxCell>
        <mxCell id="pJVrPEuzGXieX5YMCBty-29" style="edgeStyle=orthogonalEdgeStyle;rounded=0;orthogonalLoop=1;jettySize=auto;html=1;exitX=0.5;exitY=1;exitDx=0;exitDy=0;entryX=0.5;entryY=0;entryDx=0;entryDy=0;" edge="1" parent="xry3iyFIQO3kwwPL8SPI-1" source="pJVrPEuzGXieX5YMCBty-27" target="xry3iyFIQO3kwwPL8SPI-72">
          <mxGeometry relative="1" as="geometry" />
        </mxCell>
        <mxCell id="pJVrPEuzGXieX5YMCBty-27" value="unit = unit lama" style="whiteSpace=wrap;html=1;" vertex="1" parent="xry3iyFIQO3kwwPL8SPI-1">
          <mxGeometry x="314" y="1727" width="120" height="60" as="geometry" />
        </mxCell>
      </root>
    </mxGraphModel>
  </diagram>
  <diagram name="delete by id" id="BHLnxjN53zux1TMqrhM5">
    <mxGraphModel dx="880" dy="446" grid="1" gridSize="10" guides="1" tooltips="1" connect="1" arrows="1" fold="1" page="1" pageScale="1" pageWidth="850" pageHeight="1100" math="0" shadow="0">
      <root>
        <mxCell id="4dGgKswKFYMxl6eI0h0Y-0" />
        <mxCell id="4dGgKswKFYMxl6eI0h0Y-1" parent="4dGgKswKFYMxl6eI0h0Y-0" />
        <mxCell id="4dGgKswKFYMxl6eI0h0Y-2" value="&lt;h1&gt;application_handling_cost&lt;/h1&gt;&lt;div&gt;update by id&lt;/div&gt;" style="text;html=1;strokeColor=none;fillColor=none;spacing=5;spacingTop=-20;whiteSpace=wrap;overflow=hidden;rounded=0;" vertex="1" parent="4dGgKswKFYMxl6eI0h0Y-1">
          <mxGeometry x="20" y="20" width="330" height="80" as="geometry" />
        </mxCell>
        <mxCell id="4dGgKswKFYMxl6eI0h0Y-3" value="data :&lt;br style=&quot;border-color: var(--border-color);&quot;&gt;id" style="text;html=1;strokeColor=none;fillColor=none;align=center;verticalAlign=middle;whiteSpace=wrap;rounded=0;" vertex="1" parent="4dGgKswKFYMxl6eI0h0Y-1">
          <mxGeometry x="210" y="70" width="120" height="70" as="geometry" />
        </mxCell>
        <mxCell id="4dGgKswKFYMxl6eI0h0Y-4" value="" style="edgeStyle=orthogonalEdgeStyle;rounded=0;orthogonalLoop=1;jettySize=auto;html=1;" edge="1" parent="4dGgKswKFYMxl6eI0h0Y-1">
          <mxGeometry relative="1" as="geometry">
            <mxPoint x="83" y="160" as="sourcePoint" />
            <mxPoint x="83" y="190" as="targetPoint" />
          </mxGeometry>
        </mxCell>
        <mxCell id="4dGgKswKFYMxl6eI0h0Y-5" value="hit endpoint with data" style="ellipse;whiteSpace=wrap;html=1;" vertex="1" parent="4dGgKswKFYMxl6eI0h0Y-1">
          <mxGeometry x="40" y="100" width="110" height="60" as="geometry" />
        </mxCell>
        <mxCell id="4dGgKswKFYMxl6eI0h0Y-6" value="" style="edgeStyle=orthogonalEdgeStyle;rounded=0;orthogonalLoop=1;jettySize=auto;html=1;" edge="1" parent="4dGgKswKFYMxl6eI0h0Y-1">
          <mxGeometry relative="1" as="geometry">
            <mxPoint x="83" y="250" as="sourcePoint" />
            <mxPoint x="83" y="300" as="targetPoint" />
          </mxGeometry>
        </mxCell>
        <mxCell id="4dGgKswKFYMxl6eI0h0Y-7" value="" style="edgeStyle=orthogonalEdgeStyle;rounded=0;orthogonalLoop=1;jettySize=auto;html=1;" edge="1" parent="4dGgKswKFYMxl6eI0h0Y-1" source="4dGgKswKFYMxl6eI0h0Y-8" target="4dGgKswKFYMxl6eI0h0Y-17">
          <mxGeometry relative="1" as="geometry" />
        </mxCell>
        <mxCell id="4dGgKswKFYMxl6eI0h0Y-8" value="&#xa;&lt;span style=&quot;color: rgb(0, 0, 0); font-family: Helvetica; font-size: 12px; font-style: normal; font-variant-ligatures: normal; font-variant-caps: normal; font-weight: 400; letter-spacing: normal; orphans: 2; text-align: center; text-indent: 0px; text-transform: none; widows: 2; word-spacing: 0px; -webkit-text-stroke-width: 0px; background-color: rgb(251, 251, 251); text-decoration-thickness: initial; text-decoration-style: initial; text-decoration-color: initial; float: none; display: inline !important;&quot;&gt;process In controller&lt;/span&gt;&#xa;&#xa;" style="whiteSpace=wrap;html=1;" vertex="1" parent="4dGgKswKFYMxl6eI0h0Y-1">
          <mxGeometry x="35" y="190" width="120" height="60" as="geometry" />
        </mxCell>
        <mxCell id="4dGgKswKFYMxl6eI0h0Y-9" value="" style="edgeStyle=orthogonalEdgeStyle;rounded=0;orthogonalLoop=1;jettySize=auto;html=1;" edge="1" parent="4dGgKswKFYMxl6eI0h0Y-1">
          <mxGeometry relative="1" as="geometry">
            <mxPoint x="81" y="360" as="sourcePoint" />
            <mxPoint x="81" y="400" as="targetPoint" />
          </mxGeometry>
        </mxCell>
        <mxCell id="4dGgKswKFYMxl6eI0h0Y-10" value="" style="edgeStyle=orthogonalEdgeStyle;rounded=0;orthogonalLoop=1;jettySize=auto;html=1;" edge="1" parent="4dGgKswKFYMxl6eI0h0Y-1">
          <mxGeometry relative="1" as="geometry">
            <mxPoint x="99" y="300" as="sourcePoint" />
            <mxPoint x="99" y="250" as="targetPoint" />
          </mxGeometry>
        </mxCell>
        <mxCell id="4dGgKswKFYMxl6eI0h0Y-11" value="process In usecase" style="whiteSpace=wrap;html=1;" vertex="1" parent="4dGgKswKFYMxl6eI0h0Y-1">
          <mxGeometry x="35" y="300" width="120" height="60" as="geometry" />
        </mxCell>
        <mxCell id="4dGgKswKFYMxl6eI0h0Y-12" value="" style="edgeStyle=orthogonalEdgeStyle;rounded=0;orthogonalLoop=1;jettySize=auto;html=1;" edge="1" parent="4dGgKswKFYMxl6eI0h0Y-1">
          <mxGeometry relative="1" as="geometry">
            <mxPoint x="81" y="460" as="sourcePoint" />
            <mxPoint x="81" y="500" as="targetPoint" />
          </mxGeometry>
        </mxCell>
        <mxCell id="4dGgKswKFYMxl6eI0h0Y-13" value="" style="edgeStyle=orthogonalEdgeStyle;rounded=0;orthogonalLoop=1;jettySize=auto;html=1;" edge="1" parent="4dGgKswKFYMxl6eI0h0Y-1">
          <mxGeometry relative="1" as="geometry">
            <mxPoint x="99" y="400" as="sourcePoint" />
            <mxPoint x="99" y="360" as="targetPoint" />
          </mxGeometry>
        </mxCell>
        <mxCell id="4dGgKswKFYMxl6eI0h0Y-14" value="process In repository" style="whiteSpace=wrap;html=1;" vertex="1" parent="4dGgKswKFYMxl6eI0h0Y-1">
          <mxGeometry x="35" y="400" width="120" height="60" as="geometry" />
        </mxCell>
        <mxCell id="4dGgKswKFYMxl6eI0h0Y-15" value="" style="edgeStyle=orthogonalEdgeStyle;rounded=0;orthogonalLoop=1;jettySize=auto;html=1;" edge="1" parent="4dGgKswKFYMxl6eI0h0Y-1">
          <mxGeometry relative="1" as="geometry">
            <mxPoint x="105" y="500" as="sourcePoint" />
            <mxPoint x="105" y="460" as="targetPoint" />
          </mxGeometry>
        </mxCell>
        <mxCell id="4dGgKswKFYMxl6eI0h0Y-16" value="update in database" style="shape=cylinder3;whiteSpace=wrap;html=1;boundedLbl=1;backgroundOutline=1;size=15;" vertex="1" parent="4dGgKswKFYMxl6eI0h0Y-1">
          <mxGeometry x="65" y="500" width="60" height="80" as="geometry" />
        </mxCell>
        <mxCell id="4dGgKswKFYMxl6eI0h0Y-17" value="return api" style="shape=parallelogram;perimeter=parallelogramPerimeter;whiteSpace=wrap;html=1;fixedSize=1;" vertex="1" parent="4dGgKswKFYMxl6eI0h0Y-1">
          <mxGeometry x="200" y="190" width="120" height="60" as="geometry" />
        </mxCell>
        <mxCell id="4dGgKswKFYMxl6eI0h0Y-18" value="&lt;h1 style=&quot;border-color: var(--border-color);&quot;&gt;Controller&lt;/h1&gt;&lt;h1&gt;&lt;div style=&quot;border-color: var(--border-color); font-size: 12px; font-weight: 400;&quot;&gt;Process in controller layer&lt;/div&gt;&lt;/h1&gt;" style="text;html=1;strokeColor=none;fillColor=none;spacing=5;spacingTop=-20;whiteSpace=wrap;overflow=hidden;rounded=0;" vertex="1" parent="4dGgKswKFYMxl6eI0h0Y-1">
          <mxGeometry x="420" y="30" width="190" height="80" as="geometry" />
        </mxCell>
        <mxCell id="4dGgKswKFYMxl6eI0h0Y-19" value="" style="edgeStyle=orthogonalEdgeStyle;rounded=0;orthogonalLoop=1;jettySize=auto;html=1;" edge="1" parent="4dGgKswKFYMxl6eI0h0Y-1" source="4dGgKswKFYMxl6eI0h0Y-20" target="4dGgKswKFYMxl6eI0h0Y-22">
          <mxGeometry relative="1" as="geometry" />
        </mxCell>
        <mxCell id="4dGgKswKFYMxl6eI0h0Y-20" value="start" style="ellipse;whiteSpace=wrap;html=1;" vertex="1" parent="4dGgKswKFYMxl6eI0h0Y-1">
          <mxGeometry x="600" y="55" width="70" height="40" as="geometry" />
        </mxCell>
        <mxCell id="4dGgKswKFYMxl6eI0h0Y-21" value="" style="edgeStyle=orthogonalEdgeStyle;rounded=0;orthogonalLoop=1;jettySize=auto;html=1;" edge="1" parent="4dGgKswKFYMxl6eI0h0Y-1" source="4dGgKswKFYMxl6eI0h0Y-22" target="4dGgKswKFYMxl6eI0h0Y-27">
          <mxGeometry relative="1" as="geometry" />
        </mxCell>
        <mxCell id="4dGgKswKFYMxl6eI0h0Y-22" value="Accepting data in request body" style="whiteSpace=wrap;html=1;" vertex="1" parent="4dGgKswKFYMxl6eI0h0Y-1">
          <mxGeometry x="582.5" y="140" width="105" height="45" as="geometry" />
        </mxCell>
        <mxCell id="4dGgKswKFYMxl6eI0h0Y-23" value="" style="edgeStyle=orthogonalEdgeStyle;rounded=0;orthogonalLoop=1;jettySize=auto;html=1;" edge="1" parent="4dGgKswKFYMxl6eI0h0Y-1" source="4dGgKswKFYMxl6eI0h0Y-27" target="4dGgKswKFYMxl6eI0h0Y-28">
          <mxGeometry relative="1" as="geometry" />
        </mxCell>
        <mxCell id="4dGgKswKFYMxl6eI0h0Y-24" value="no" style="edgeLabel;html=1;align=center;verticalAlign=middle;resizable=0;points=[];" vertex="1" connectable="0" parent="4dGgKswKFYMxl6eI0h0Y-23">
          <mxGeometry x="-0.0571" relative="1" as="geometry">
            <mxPoint y="1" as="offset" />
          </mxGeometry>
        </mxCell>
        <mxCell id="4dGgKswKFYMxl6eI0h0Y-25" value="" style="edgeStyle=orthogonalEdgeStyle;rounded=0;orthogonalLoop=1;jettySize=auto;html=1;" edge="1" parent="4dGgKswKFYMxl6eI0h0Y-1" source="4dGgKswKFYMxl6eI0h0Y-27" target="4dGgKswKFYMxl6eI0h0Y-31">
          <mxGeometry relative="1" as="geometry" />
        </mxCell>
        <mxCell id="4dGgKswKFYMxl6eI0h0Y-26" value="go to usecase" style="edgeLabel;html=1;align=center;verticalAlign=middle;resizable=0;points=[];" vertex="1" connectable="0" parent="4dGgKswKFYMxl6eI0h0Y-25">
          <mxGeometry x="-0.1444" y="4" relative="1" as="geometry">
            <mxPoint as="offset" />
          </mxGeometry>
        </mxCell>
        <mxCell id="4dGgKswKFYMxl6eI0h0Y-27" value="success accept data" style="rhombus;whiteSpace=wrap;html=1;" vertex="1" parent="4dGgKswKFYMxl6eI0h0Y-1">
          <mxGeometry x="595" y="247.5" width="80" height="80" as="geometry" />
        </mxCell>
        <mxCell id="4dGgKswKFYMxl6eI0h0Y-28" value="return error to api" style="shape=parallelogram;perimeter=parallelogramPerimeter;whiteSpace=wrap;html=1;fixedSize=1;" vertex="1" parent="4dGgKswKFYMxl6eI0h0Y-1">
          <mxGeometry x="716" y="257.5" width="120" height="60" as="geometry" />
        </mxCell>
        <mxCell id="4dGgKswKFYMxl6eI0h0Y-29" value="" style="edgeStyle=orthogonalEdgeStyle;rounded=0;orthogonalLoop=1;jettySize=auto;html=1;" edge="1" parent="4dGgKswKFYMxl6eI0h0Y-1" source="4dGgKswKFYMxl6eI0h0Y-31">
          <mxGeometry relative="1" as="geometry">
            <mxPoint x="635" y="557.5" as="targetPoint" />
          </mxGeometry>
        </mxCell>
        <mxCell id="4dGgKswKFYMxl6eI0h0Y-30" value="return result" style="edgeLabel;html=1;align=center;verticalAlign=middle;resizable=0;points=[];" vertex="1" connectable="0" parent="4dGgKswKFYMxl6eI0h0Y-29">
          <mxGeometry x="0.0125" y="1" relative="1" as="geometry">
            <mxPoint as="offset" />
          </mxGeometry>
        </mxCell>
        <mxCell id="4dGgKswKFYMxl6eI0h0Y-31" value="Process in usecase" style="whiteSpace=wrap;html=1;" vertex="1" parent="4dGgKswKFYMxl6eI0h0Y-1">
          <mxGeometry x="575" y="417.5" width="120" height="60" as="geometry" />
        </mxCell>
        <mxCell id="4dGgKswKFYMxl6eI0h0Y-32" value="" style="edgeStyle=orthogonalEdgeStyle;rounded=0;orthogonalLoop=1;jettySize=auto;html=1;" edge="1" parent="4dGgKswKFYMxl6eI0h0Y-1" source="4dGgKswKFYMxl6eI0h0Y-36" target="4dGgKswKFYMxl6eI0h0Y-37">
          <mxGeometry relative="1" as="geometry" />
        </mxCell>
        <mxCell id="4dGgKswKFYMxl6eI0h0Y-33" value="yes" style="edgeLabel;html=1;align=center;verticalAlign=middle;resizable=0;points=[];" vertex="1" connectable="0" parent="4dGgKswKFYMxl6eI0h0Y-32">
          <mxGeometry x="-0.1714" y="1" relative="1" as="geometry">
            <mxPoint as="offset" />
          </mxGeometry>
        </mxCell>
        <mxCell id="4dGgKswKFYMxl6eI0h0Y-34" value="" style="edgeStyle=orthogonalEdgeStyle;rounded=0;orthogonalLoop=1;jettySize=auto;html=1;" edge="1" parent="4dGgKswKFYMxl6eI0h0Y-1" source="4dGgKswKFYMxl6eI0h0Y-36" target="4dGgKswKFYMxl6eI0h0Y-38">
          <mxGeometry relative="1" as="geometry" />
        </mxCell>
        <mxCell id="4dGgKswKFYMxl6eI0h0Y-35" value="no" style="edgeLabel;html=1;align=center;verticalAlign=middle;resizable=0;points=[];" vertex="1" connectable="0" parent="4dGgKswKFYMxl6eI0h0Y-34">
          <mxGeometry x="-0.1714" y="-2" relative="1" as="geometry">
            <mxPoint as="offset" />
          </mxGeometry>
        </mxCell>
        <mxCell id="4dGgKswKFYMxl6eI0h0Y-36" value="get error resutl?" style="rhombus;whiteSpace=wrap;html=1;" vertex="1" parent="4dGgKswKFYMxl6eI0h0Y-1">
          <mxGeometry x="595" y="560" width="80" height="80" as="geometry" />
        </mxCell>
        <mxCell id="4dGgKswKFYMxl6eI0h0Y-37" value="return error to api" style="shape=parallelogram;perimeter=parallelogramPerimeter;whiteSpace=wrap;html=1;fixedSize=1;" vertex="1" parent="4dGgKswKFYMxl6eI0h0Y-1">
          <mxGeometry x="415" y="570" width="120" height="60" as="geometry" />
        </mxCell>
        <mxCell id="4dGgKswKFYMxl6eI0h0Y-38" value="return message success delete to API" style="shape=parallelogram;perimeter=parallelogramPerimeter;whiteSpace=wrap;html=1;fixedSize=1;" vertex="1" parent="4dGgKswKFYMxl6eI0h0Y-1">
          <mxGeometry x="722" y="570" width="120" height="60" as="geometry" />
        </mxCell>
        <mxCell id="4dGgKswKFYMxl6eI0h0Y-39" value="&lt;h1&gt;Usecase&lt;/h1&gt;&lt;div&gt;process in usecase layer&lt;/div&gt;" style="text;html=1;strokeColor=none;fillColor=none;spacing=5;spacingTop=-20;whiteSpace=wrap;overflow=hidden;rounded=0;" vertex="1" parent="4dGgKswKFYMxl6eI0h0Y-1">
          <mxGeometry x="10" y="620" width="160" height="70" as="geometry" />
        </mxCell>
        <mxCell id="4dGgKswKFYMxl6eI0h0Y-40" value="" style="edgeStyle=orthogonalEdgeStyle;rounded=0;orthogonalLoop=1;jettySize=auto;html=1;" edge="1" parent="4dGgKswKFYMxl6eI0h0Y-1" source="4dGgKswKFYMxl6eI0h0Y-42" target="4dGgKswKFYMxl6eI0h0Y-50">
          <mxGeometry relative="1" as="geometry" />
        </mxCell>
        <mxCell id="4dGgKswKFYMxl6eI0h0Y-41" value="no" style="edgeLabel;html=1;align=center;verticalAlign=middle;resizable=0;points=[];" vertex="1" connectable="0" parent="4dGgKswKFYMxl6eI0h0Y-40">
          <mxGeometry x="-0.08" y="1" relative="1" as="geometry">
            <mxPoint as="offset" />
          </mxGeometry>
        </mxCell>
        <mxCell id="4dGgKswKFYMxl6eI0h0Y-42" value="GetRole() == admin" style="rhombus;whiteSpace=wrap;html=1;" vertex="1" parent="4dGgKswKFYMxl6eI0h0Y-1">
          <mxGeometry x="174" y="840" width="80" height="80" as="geometry" />
        </mxCell>
        <mxCell id="4dGgKswKFYMxl6eI0h0Y-43" value="" style="edgeStyle=orthogonalEdgeStyle;rounded=0;orthogonalLoop=1;jettySize=auto;html=1;exitX=0.5;exitY=1;exitDx=0;exitDy=0;" edge="1" parent="4dGgKswKFYMxl6eI0h0Y-1" source="4dGgKswKFYMxl6eI0h0Y-42" target="4dGgKswKFYMxl6eI0h0Y-49">
          <mxGeometry relative="1" as="geometry">
            <mxPoint x="214" y="1050" as="sourcePoint" />
          </mxGeometry>
        </mxCell>
        <mxCell id="4dGgKswKFYMxl6eI0h0Y-44" value="yes" style="edgeLabel;html=1;align=center;verticalAlign=middle;resizable=0;points=[];" vertex="1" connectable="0" parent="4dGgKswKFYMxl6eI0h0Y-43">
          <mxGeometry x="-0.2381" y="2" relative="1" as="geometry">
            <mxPoint as="offset" />
          </mxGeometry>
        </mxCell>
        <mxCell id="4dGgKswKFYMxl6eI0h0Y-45" value="" style="edgeStyle=orthogonalEdgeStyle;rounded=0;orthogonalLoop=1;jettySize=auto;html=1;" edge="1" parent="4dGgKswKFYMxl6eI0h0Y-1" source="4dGgKswKFYMxl6eI0h0Y-49">
          <mxGeometry relative="1" as="geometry">
            <mxPoint x="314" y="1002" as="targetPoint" />
          </mxGeometry>
        </mxCell>
        <mxCell id="4dGgKswKFYMxl6eI0h0Y-46" value="yes" style="edgeLabel;html=1;align=center;verticalAlign=middle;resizable=0;points=[];" vertex="1" connectable="0" parent="4dGgKswKFYMxl6eI0h0Y-45">
          <mxGeometry x="0.0082" y="-5" relative="1" as="geometry">
            <mxPoint x="-2" as="offset" />
          </mxGeometry>
        </mxCell>
        <mxCell id="4dGgKswKFYMxl6eI0h0Y-47" value="" style="edgeStyle=orthogonalEdgeStyle;rounded=0;orthogonalLoop=1;jettySize=auto;html=1;entryX=0.5;entryY=0;entryDx=0;entryDy=0;" edge="1" parent="4dGgKswKFYMxl6eI0h0Y-1" source="4dGgKswKFYMxl6eI0h0Y-49" target="4dGgKswKFYMxl6eI0h0Y-55">
          <mxGeometry relative="1" as="geometry">
            <mxPoint x="214" y="1100" as="targetPoint" />
          </mxGeometry>
        </mxCell>
        <mxCell id="4dGgKswKFYMxl6eI0h0Y-48" value="no" style="edgeLabel;html=1;align=center;verticalAlign=middle;resizable=0;points=[];" vertex="1" connectable="0" parent="4dGgKswKFYMxl6eI0h0Y-47">
          <mxGeometry x="-0.2414" y="-2" relative="1" as="geometry">
            <mxPoint as="offset" />
          </mxGeometry>
        </mxCell>
        <mxCell id="4dGgKswKFYMxl6eI0h0Y-49" value="id == nul" style="rhombus;whiteSpace=wrap;html=1;" vertex="1" parent="4dGgKswKFYMxl6eI0h0Y-1">
          <mxGeometry x="174" y="962" width="80" height="80" as="geometry" />
        </mxCell>
        <mxCell id="4dGgKswKFYMxl6eI0h0Y-50" value="return : you are not allowed to do this." style="shape=parallelogram;perimeter=parallelogramPerimeter;whiteSpace=wrap;html=1;fixedSize=1;" vertex="1" parent="4dGgKswKFYMxl6eI0h0Y-1">
          <mxGeometry x="294" y="850" width="120" height="60" as="geometry" />
        </mxCell>
        <mxCell id="4dGgKswKFYMxl6eI0h0Y-51" value="id required" style="shape=parallelogram;perimeter=parallelogramPerimeter;whiteSpace=wrap;html=1;fixedSize=1;" vertex="1" parent="4dGgKswKFYMxl6eI0h0Y-1">
          <mxGeometry x="304" y="972" width="120" height="60" as="geometry" />
        </mxCell>
        <mxCell id="4dGgKswKFYMxl6eI0h0Y-52" value="" style="edgeStyle=orthogonalEdgeStyle;rounded=0;orthogonalLoop=1;jettySize=auto;html=1;" edge="1" parent="4dGgKswKFYMxl6eI0h0Y-1" source="4dGgKswKFYMxl6eI0h0Y-53" target="4dGgKswKFYMxl6eI0h0Y-42">
          <mxGeometry relative="1" as="geometry" />
        </mxCell>
        <mxCell id="4dGgKswKFYMxl6eI0h0Y-53" value="data" style="ellipse;whiteSpace=wrap;html=1;" vertex="1" parent="4dGgKswKFYMxl6eI0h0Y-1">
          <mxGeometry x="154" y="721" width="120" height="80" as="geometry" />
        </mxCell>
        <mxCell id="4dGgKswKFYMxl6eI0h0Y-54" value="" style="edgeStyle=orthogonalEdgeStyle;rounded=0;orthogonalLoop=1;jettySize=auto;html=1;" edge="1" parent="4dGgKswKFYMxl6eI0h0Y-1" source="4dGgKswKFYMxl6eI0h0Y-55" target="4dGgKswKFYMxl6eI0h0Y-60">
          <mxGeometry relative="1" as="geometry" />
        </mxCell>
        <mxCell id="4dGgKswKFYMxl6eI0h0Y-55" value="process search&amp;nbsp; data with id" style="rounded=1;whiteSpace=wrap;html=1;" vertex="1" parent="4dGgKswKFYMxl6eI0h0Y-1">
          <mxGeometry x="154" y="1110" width="120" height="60" as="geometry" />
        </mxCell>
        <mxCell id="4dGgKswKFYMxl6eI0h0Y-56" value="" style="edgeStyle=orthogonalEdgeStyle;rounded=0;orthogonalLoop=1;jettySize=auto;html=1;" edge="1" parent="4dGgKswKFYMxl6eI0h0Y-1" source="4dGgKswKFYMxl6eI0h0Y-60" target="4dGgKswKFYMxl6eI0h0Y-61">
          <mxGeometry relative="1" as="geometry" />
        </mxCell>
        <mxCell id="4dGgKswKFYMxl6eI0h0Y-57" value="no" style="edgeLabel;html=1;align=center;verticalAlign=middle;resizable=0;points=[];" vertex="1" connectable="0" parent="4dGgKswKFYMxl6eI0h0Y-56">
          <mxGeometry x="-0.1429" y="1" relative="1" as="geometry">
            <mxPoint as="offset" />
          </mxGeometry>
        </mxCell>
        <mxCell id="4dGgKswKFYMxl6eI0h0Y-58" value="" style="edgeStyle=orthogonalEdgeStyle;rounded=0;orthogonalLoop=1;jettySize=auto;html=1;entryX=0.5;entryY=0;entryDx=0;entryDy=0;" edge="1" parent="4dGgKswKFYMxl6eI0h0Y-1" source="4dGgKswKFYMxl6eI0h0Y-60" target="_tYKITm5m2OLdlzlU66X-0">
          <mxGeometry relative="1" as="geometry">
            <mxPoint x="214" y="1380" as="targetPoint" />
          </mxGeometry>
        </mxCell>
        <mxCell id="4dGgKswKFYMxl6eI0h0Y-59" value="yes" style="edgeLabel;html=1;align=center;verticalAlign=middle;resizable=0;points=[];" vertex="1" connectable="0" parent="4dGgKswKFYMxl6eI0h0Y-58">
          <mxGeometry x="-0.2444" y="2" relative="1" as="geometry">
            <mxPoint as="offset" />
          </mxGeometry>
        </mxCell>
        <mxCell id="4dGgKswKFYMxl6eI0h0Y-60" value="success searching data" style="rhombus;whiteSpace=wrap;html=1;rounded=1;" vertex="1" parent="4dGgKswKFYMxl6eI0h0Y-1">
          <mxGeometry x="174" y="1210" width="80" height="80" as="geometry" />
        </mxCell>
        <mxCell id="4dGgKswKFYMxl6eI0h0Y-61" value="return error" style="shape=parallelogram;perimeter=parallelogramPerimeter;whiteSpace=wrap;html=1;fixedSize=1;rounded=1;" vertex="1" parent="4dGgKswKFYMxl6eI0h0Y-1">
          <mxGeometry x="314" y="1220" width="120" height="60" as="geometry" />
        </mxCell>
        <mxCell id="4dGgKswKFYMxl6eI0h0Y-63" value="&lt;h1&gt;repo&lt;/h1&gt;&lt;div&gt;process in layer repository&lt;/div&gt;" style="text;html=1;strokeColor=none;fillColor=none;spacing=5;spacingTop=-20;whiteSpace=wrap;overflow=hidden;rounded=0;" vertex="1" parent="4dGgKswKFYMxl6eI0h0Y-1">
          <mxGeometry x="550" y="665" width="160" height="70" as="geometry" />
        </mxCell>
        <mxCell id="4dGgKswKFYMxl6eI0h0Y-64" value="" style="edgeStyle=orthogonalEdgeStyle;rounded=0;orthogonalLoop=1;jettySize=auto;html=1;" edge="1" parent="4dGgKswKFYMxl6eI0h0Y-1" source="4dGgKswKFYMxl6eI0h0Y-65" target="4dGgKswKFYMxl6eI0h0Y-68">
          <mxGeometry relative="1" as="geometry" />
        </mxCell>
        <mxCell id="4dGgKswKFYMxl6eI0h0Y-65" value="data" style="ellipse;whiteSpace=wrap;html=1;" vertex="1" parent="4dGgKswKFYMxl6eI0h0Y-1">
          <mxGeometry x="697" y="721" width="120" height="80" as="geometry" />
        </mxCell>
        <mxCell id="4dGgKswKFYMxl6eI0h0Y-66" value="" style="edgeStyle=orthogonalEdgeStyle;rounded=0;orthogonalLoop=1;jettySize=auto;html=1;" edge="1" parent="4dGgKswKFYMxl6eI0h0Y-1" source="4dGgKswKFYMxl6eI0h0Y-68" target="4dGgKswKFYMxl6eI0h0Y-69">
          <mxGeometry relative="1" as="geometry" />
        </mxCell>
        <mxCell id="4dGgKswKFYMxl6eI0h0Y-67" value="" style="edgeStyle=orthogonalEdgeStyle;rounded=0;orthogonalLoop=1;jettySize=auto;html=1;" edge="1" parent="4dGgKswKFYMxl6eI0h0Y-1" source="4dGgKswKFYMxl6eI0h0Y-68" target="4dGgKswKFYMxl6eI0h0Y-74">
          <mxGeometry relative="1" as="geometry" />
        </mxCell>
        <mxCell id="4dGgKswKFYMxl6eI0h0Y-68" value="do query delete from table application_handle_cost by id" style="whiteSpace=wrap;html=1;" vertex="1" parent="4dGgKswKFYMxl6eI0h0Y-1">
          <mxGeometry x="692" y="891" width="130" height="69" as="geometry" />
        </mxCell>
        <mxCell id="4dGgKswKFYMxl6eI0h0Y-69" value="table application handle cost" style="shape=cylinder3;whiteSpace=wrap;html=1;boundedLbl=1;backgroundOutline=1;size=15;" vertex="1" parent="4dGgKswKFYMxl6eI0h0Y-1">
          <mxGeometry x="560" y="885.5" width="60" height="80" as="geometry" />
        </mxCell>
        <mxCell id="4dGgKswKFYMxl6eI0h0Y-70" value="" style="edgeStyle=orthogonalEdgeStyle;rounded=0;orthogonalLoop=1;jettySize=auto;html=1;" edge="1" parent="4dGgKswKFYMxl6eI0h0Y-1" source="4dGgKswKFYMxl6eI0h0Y-74" target="4dGgKswKFYMxl6eI0h0Y-75">
          <mxGeometry relative="1" as="geometry" />
        </mxCell>
        <mxCell id="4dGgKswKFYMxl6eI0h0Y-71" value="no" style="edgeLabel;html=1;align=center;verticalAlign=middle;resizable=0;points=[];" vertex="1" connectable="0" parent="4dGgKswKFYMxl6eI0h0Y-70">
          <mxGeometry x="0.0566" y="1" relative="1" as="geometry">
            <mxPoint as="offset" />
          </mxGeometry>
        </mxCell>
        <mxCell id="4dGgKswKFYMxl6eI0h0Y-72" value="" style="edgeStyle=orthogonalEdgeStyle;rounded=0;orthogonalLoop=1;jettySize=auto;html=1;" edge="1" parent="4dGgKswKFYMxl6eI0h0Y-1" source="4dGgKswKFYMxl6eI0h0Y-74" target="4dGgKswKFYMxl6eI0h0Y-76">
          <mxGeometry relative="1" as="geometry" />
        </mxCell>
        <mxCell id="4dGgKswKFYMxl6eI0h0Y-73" value="yes" style="edgeLabel;html=1;align=center;verticalAlign=middle;resizable=0;points=[];" vertex="1" connectable="0" parent="4dGgKswKFYMxl6eI0h0Y-72">
          <mxGeometry x="-0.1556" y="-2" relative="1" as="geometry">
            <mxPoint as="offset" />
          </mxGeometry>
        </mxCell>
        <mxCell id="4dGgKswKFYMxl6eI0h0Y-74" value="success deleting data" style="rhombus;whiteSpace=wrap;html=1;" vertex="1" parent="4dGgKswKFYMxl6eI0h0Y-1">
          <mxGeometry x="717" y="1010" width="80" height="80" as="geometry" />
        </mxCell>
        <mxCell id="4dGgKswKFYMxl6eI0h0Y-75" value="return error" style="shape=parallelogram;perimeter=parallelogramPerimeter;whiteSpace=wrap;html=1;fixedSize=1;" vertex="1" parent="4dGgKswKFYMxl6eI0h0Y-1">
          <mxGeometry x="560" y="1020" width="120" height="60" as="geometry" />
        </mxCell>
        <mxCell id="4dGgKswKFYMxl6eI0h0Y-76" value="retun data" style="shape=parallelogram;perimeter=parallelogramPerimeter;whiteSpace=wrap;html=1;fixedSize=1;" vertex="1" parent="4dGgKswKFYMxl6eI0h0Y-1">
          <mxGeometry x="697" y="1180" width="120" height="60" as="geometry" />
        </mxCell>
        <mxCell id="_tYKITm5m2OLdlzlU66X-0" value="process delete data with id" style="rounded=1;whiteSpace=wrap;html=1;" vertex="1" parent="4dGgKswKFYMxl6eI0h0Y-1">
          <mxGeometry x="154" y="1370" width="120" height="60" as="geometry" />
        </mxCell>
      </root>
    </mxGraphModel>
  </diagram>
</mxfile>
